<svg xmlns="http://www.w3.org/2000/svg" width="300" height="300" viewBox="0 0 300 300">
  <g>
    <path d="M237.23,110.05l.45-.09Z" style="fill: #c76c61"/>
    <path d="M236.57,110.2h0Z" style="fill: #c76c61"/>
    <path d="M157.31,63.57l.59.13Z" style="fill: #c76c61"/>
    <path d="M158.2,63.79l.53.19Z" style="fill: #c76c61"/>
    <path d="M155.68,63.46h0Z" style="fill: #c76c61"/>
    <path d="M154.66,63.56l.33-.05Z" style="fill: #c76c61"/>
    <path d="M153.61,63.78l.33-.08Z" style="fill: #c76c61"/>
    <path d="M156.24,63.46c.25,0,.5,0,.73,0C156.74,63.48,156.49,63.47,156.24,63.46Z" style="fill: #c76c61"/>
    <path d="M159,64.07c.22.11.44.22.63.33C159.4,64.29,159.18,64.18,159,64.07Z" style="fill: #c76c61"/>
    <path d="M202.07,123.42l.39.74Z" style="fill: #c76c61"/>
    <path d="M63.17,156.93q1,3.57,2,7.07a58.28,58.28,0,0,1,1.23,5.87A58.28,58.28,0,0,0,65.2,164Q64.18,160.51,63.17,156.93Z" style="fill: #00586f"/>
    <path d="M140.74,116.71h-.38l.38.24Z" style="fill: #00586f"/>
    <path d="M133.5,257.91l-11.18-.81Z" style="fill: #00586f"/>
    <path d="M195.24,252.65a6.09,6.09,0,0,1,.34-1.83h0A6.25,6.25,0,0,0,195.24,252.65Z" style="fill: #00586f"/>
    <path d="M176.65,261.07a1.5,1.5,0,0,1,.31.31A1.5,1.5,0,0,0,176.65,261.07Z" style="fill: #00586f"/>
    <path d="M180.57,269c1.27,2.58,2.92,5,5.45,5.75C183.49,273.92,181.84,271.54,180.57,269Z" style="fill: #00586f"/>
    <path d="M205.19,252.78l-.39-.06Z" style="fill: #00586f"/>
    <path d="M211.22,252.37l-.47.13Z" style="fill: #00586f"/>
    <path d="M200.52,251.17l-.09,0Z" style="fill: #00586f"/>
    <path d="M200.17,251l-.11,0Z" style="fill: #00586f"/>
    <path d="M206.87,252.93h0Z" style="fill: #00586f"/>
    <path d="M171.19,260.62l5.31.38a.51.51,0,0,1,.15.07.51.51,0,0,0-.15-.07Z" style="fill: #00586f"/>
    <path d="M206,252.88l-.39,0Z" style="fill: #00586f"/>
    <path d="M204.35,252.63l-.37-.09Z" style="fill: #00586f"/>
    <path d="M207.78,252.93h0Z" style="fill: #00586f"/>
    <path d="M210.36,252.59l-.46.1Z" style="fill: #00586f"/>
    <path d="M199.24,250.64l-.14,0Z" style="fill: #00586f"/>
    <path d="M203.52,252.42l-.36-.11Z" style="fill: #00586f"/>
    <path d="M196,250.51a.53.53,0,0,0-.1.06A.53.53,0,0,1,196,250.51Z" style="fill: #00586f"/>
    <path d="M208.64,252.87l-.46,0Z" style="fill: #00586f"/>
    <path d="M199.67,250.8l0,0Z" style="fill: #00586f"/>
    <path d="M209.5,252.76l-.45.07Z" style="fill: #00586f"/>
    <path d="M197.09,250.22h0Z" style="fill: #00586f"/>
    <path d="M202.69,252.15l-.33-.12Z" style="fill: #00586f"/>
    <path d="M186.66,274.87a3.56,3.56,0,0,1-.47-.1A3.56,3.56,0,0,0,186.66,274.87Z" style="fill: #00586f"/>
    <path d="M197.7,250.26h0Z" style="fill: #00586f"/>
    <path d="M198.17,250.34h0Z" style="fill: #00586f"/>
    <path d="M200.8,251.31h0l0,0,0,0Z" style="fill: #00586f"/>
    <path d="M196.3,250.34l-.11,0Z" style="fill: #00586f"/>
    <path d="M195.24,252.65c0,.3-.05.61-.07.94C195.19,253.26,195.21,253,195.24,252.65Z" style="fill: #00586f"/>
    <path d="M201.85,251.82l-.28-.12Z" style="fill: #00586f"/>
    <path d="M217.52,248.6l.08-.09h0Z" style="fill: #00586f"/>
    <path d="M180.53,268.88c-.29-.59-.56-1.2-.82-1.79C180,267.68,180.24,268.29,180.53,268.88Z" style="fill: #00586f"/>
    <path d="M196.68,250.25l-.07,0Z" style="fill: #00586f"/>
    <path d="M187.42,275c-.14,0-.28,0-.41,0C187.14,275,187.28,275,187.42,275Z" style="fill: #00586f"/>
    <path d="M213,251.73l-.54.23Z" style="fill: #00586f"/>
    <path d="M198.76,250.49l-.13,0Z" style="fill: #00586f"/>
    <path d="M216.24,249.75c-.37.3-.77.58-1.17.85C215.47,250.33,215.87,250.05,216.24,249.75Z" style="fill: #00586f"/>
    <path d="M212.08,252.09l-.48.17Z" style="fill: #00586f"/>
    <path d="M177.49,262.18a5.83,5.83,0,0,0-.53-.8A5.83,5.83,0,0,1,177.49,262.18Z" style="fill: #00586f"/>
    <path d="M214,251.23l-.76.38Z" style="fill: #00586f"/>
    <path d="M217.49,248.62a12.25,12.25,0,0,1-1.25,1.13A12.25,12.25,0,0,0,217.49,248.62Z" style="fill: #00586f"/>
    <path d="M200.8,251.31l-.28-.14Z" style="fill: #00567d"/>
    <path d="M199.1,250.59l-.34-.1Z" style="fill: #00567d"/>
    <path d="M196.61,250.27l-.31.07Z" style="fill: #00567d"/>
    <path d="M197.56,250.25l-.35,0Z" style="fill: #00567d"/>
    <path d="M196.19,250.39a.9.9,0,0,0-.24.12A.9.9,0,0,1,196.19,250.39Z" style="fill: #00567d"/>
    <path d="M198.09,250.33l-.39-.07Z" style="fill: #00567d"/>
    <path d="M201.57,251.7l-.73-.37Z" style="fill: #00567d"/>
    <path d="M198.63,250.45l-.46-.11Z" style="fill: #00567d"/>
    <path d="M199.62,250.78l-.38-.14Z" style="fill: #00567d"/>
    <path d="M200.06,251a3.52,3.52,0,0,0-.39-.16A3.52,3.52,0,0,1,200.06,251Z" style="fill: #00567d"/>
    <path d="M200.43,251.12l-.26-.11Z" style="fill: #00567d"/>
    <path d="M204.8,252.72l-.45-.09Z" style="fill: #00567d"/>
    <path d="M227.92,218.85a5.83,5.83,0,0,0-.4,1.33A5.83,5.83,0,0,1,227.92,218.85Z" style="fill: #00567d"/>
    <path d="M239.73,198.71q-2.05,3.45-4,6.79Q237.68,202.16,239.73,198.71Z" style="fill: #00567d"/>
    <path d="M225.47,227c-.52,1.46-1.06,3-1.54,4.45C224.41,229.93,225,228.42,225.47,227Z" style="fill: #00567d"/>
    <path d="M235.71,205.5c-1.32,2.24-2.62,4.44-3.9,6.64C233.09,209.94,234.39,207.74,235.71,205.5Z" style="fill: #00567d"/>
    <path d="M222,237.21a17.12,17.12,0,0,0-.54,2.34A17.12,17.12,0,0,1,222,237.21Z" style="fill: #00567d"/>
    <path d="M223,234c-.3.82-.59,1.64-.85,2.43C222.45,235.62,222.74,234.8,223,234Z" style="fill: #00567d"/>
    <path d="M220.38,150.59q.6,1.64,1.32,3.3Q221,152.23,220.38,150.59Z" style="fill: #00567d"/>
    <path d="M221.7,153.89c.48,1.1,1,2.22,1.57,3.34C222.7,156.11,222.18,155,221.7,153.89Z" style="fill: #00567d"/>
    <path d="M217.52,248.6l0,0Z" style="fill: #00567d"/>
    <path d="M218.14,142.4a49.62,49.62,0,0,0,1.68,6.55A49.62,49.62,0,0,1,218.14,142.4Z" style="fill: #00567d"/>
    <path d="M242.18,183.71a5.43,5.43,0,0,1,1.28.71A5.43,5.43,0,0,0,242.18,183.71Z" style="fill: #00567d"/>
    <path d="M223.27,157.23c.56,1.12,1.17,2.25,1.82,3.39C224.44,159.48,223.83,158.35,223.27,157.23Z" style="fill: #00567d"/>
    <path d="M232.64,182.16a5,5,0,0,0,1.8.67A5,5,0,0,1,232.64,182.16Z" style="fill: #00567d"/>
    <path d="M206.48,252.92l-.45,0Z" style="fill: #00567d"/>
    <path d="M213.25,251.61c-.09,0-.19.08-.28.12C213.06,251.69,213.16,251.66,213.25,251.61Z" style="fill: #00567d"/>
    <path d="M208.18,252.91l-.4,0Z" style="fill: #00567d"/>
    <path d="M205.64,252.85l-.45-.07Z" style="fill: #00567d"/>
    <path d="M207.27,253h0a3.38,3.38,0,0,1-.45,0Z" style="fill: #00567d"/>
    <path d="M204,252.54c-.16,0-.31-.08-.46-.12C203.67,252.46,203.82,252.51,204,252.54Z" style="fill: #00567d"/>
    <path d="M203.16,252.31l-.47-.16Z" style="fill: #00567d"/>
    <path d="M202.36,252c-.18-.06-.34-.14-.51-.21C202,251.89,202.18,252,202.36,252Z" style="fill: #00567d"/>
    <path d="M212.43,252l-.35.13Z" style="fill: #00567d"/>
    <path d="M211.6,252.26l-.38.11Z" style="fill: #00567d"/>
    <path d="M179.83,96a145.11,145.11,0,0,1,11.67,14.7A145.11,145.11,0,0,0,179.83,96Z" style="fill: #00567d"/>
    <path d="M210.75,252.5l-.39.09Z" style="fill: #00567d"/>
    <path d="M209.05,252.83l-.41,0Z" style="fill: #00567d"/>
    <path d="M209.9,252.69l-.4.07Z" style="fill: #00567d"/>
    <path d="M161,65.58a7.06,7.06,0,0,0-1-.88h0A7.06,7.06,0,0,1,161,65.58Z" style="fill: #00567d"/>
    <path d="M179.83,96c-.56-.63-1.14-1.24-1.72-1.86h0C178.69,94.75,179.27,95.36,179.83,96Z" style="fill: #00567d"/>
    <path d="M163.28,70h0a10.37,10.37,0,0,0-1.07-2.78A10.37,10.37,0,0,1,163.28,70Z" style="fill: #00567d"/>
    <path d="M214,251.23l0,0c.35-.19.69-.4,1-.61-.33.21-.67.42-1,.61Z" style="fill: #00567d"/>
    <path d="M195.85,250.57a1.55,1.55,0,0,0-.27.24A1.55,1.55,0,0,1,195.85,250.57Z" style="fill: #00567d"/>
    <path d="M196.68,250.25c.13,0,.27,0,.41,0C197,250.23,196.81,250.23,196.68,250.25Z" style="fill: #00567d"/>
    <path d="M57.85,134.91l-2.12-13.25,2.12,13.25c1.16,6.29,2.68,12.43,4.32,18.43-1.43-5.23-2.76-10.57-3.84-16C58.17,136.52,58,135.72,57.85,134.91Z" style="fill: #00567d"/>
    <path d="M62,200.85c.14.78.29,1.55.45,2.32.26,1.27.51,2.47.66,3.65-.15-1.18-.4-2.38-.66-3.65C62.3,202.4,62.15,201.63,62,200.85Z" style="fill: #00567d"/>
    <path d="M221.07,242a11.73,11.73,0,0,0,.25-1.68c0-.26.05-.52.09-.77,0,.25-.07.51-.09.77A11.73,11.73,0,0,1,221.07,242Z" style="fill: #00567d"/>
    <path d="M187.88,275l.51,0-.51,0Z" style="fill: #00567d"/>
    <path d="M187,274.94a3.09,3.09,0,0,1-.35-.07A3.09,3.09,0,0,0,187,274.94Z" style="fill: #00567d"/>
    <path d="M187.88,275h0c-.16,0-.31,0-.46,0C187.57,275,187.72,275,187.88,275Z" style="fill: #00567d"/>
    <path d="M186.19,274.77a1.15,1.15,0,0,1-.17-.06A1.15,1.15,0,0,0,186.19,274.77Z" style="fill: #00567d"/>
    <path d="M194.6,265.18c-.11.94-.24,1.86-.41,2.73C194.36,267,194.49,266.12,194.6,265.18Z" style="fill: #00567d"/>
    <path d="M194.73,263.73c0,.49-.08,1-.13,1.45C194.65,264.7,194.69,264.22,194.73,263.73Z" style="fill: #00567d"/>
    <path d="M193.11,271.43a8.75,8.75,0,0,1-.52,1A8.75,8.75,0,0,0,193.11,271.43Z" style="fill: #00567d"/>
    <path d="M194.83,262.26c0,.5-.06,1-.1,1.47C194.77,263.25,194.8,262.76,194.83,262.26Z" style="fill: #00567d"/>
    <path d="M180.57,269l0-.08Z" style="fill: #00567d"/>
    <path d="M225.47,227c.49-1.38,1-2.75,1.44-4.14a8.47,8.47,0,0,0,.28-1,8.47,8.47,0,0,1-.28,1C226.45,224.21,226,225.58,225.47,227Z" style="fill: #00567d"/>
    <path d="M232,181.6a3.1,3.1,0,0,1-.51-.68,3.85,3.85,0,0,1-.27-.63,3.85,3.85,0,0,0,.27.63A3.1,3.1,0,0,0,232,181.6Z" style="fill: #00567d"/>
    <path d="M231.38,170.88a16.24,16.24,0,0,0-1.86-3.27c-1.66-2.39-3.13-4.71-4.43-7,1.3,2.28,2.77,4.6,4.43,7A16.24,16.24,0,0,1,231.38,170.88Z" style="fill: #00567d"/>
    <path d="M231.26,178.31a3,3,0,0,0-.18.65,3,3,0,0,1,.18-.65,9.56,9.56,0,0,0,.12-7.43A9.56,9.56,0,0,1,231.26,178.31Z" style="fill: #00567d"/>
    <path d="M179.71,267.09l-.55-1.31Z" style="fill: #00567d"/>
    <path d="M178.11,94.13h0c-.14-.14-.27-.29-.41-.44h0C177.84,93.84,178,94,178.11,94.13Z" style="fill: #00567d"/>
    <path d="M160,64.7c-.14-.1-.28-.21-.42-.3.14.09.28.2.42.3Z" style="fill: #00567d"/>
    <path d="M172,87.94c2,1.88,3.89,3.79,5.74,5.75h0c-1.85-2-3.76-3.87-5.74-5.75a28,28,0,0,1-3.16-3.56A28,28,0,0,0,172,87.94Z" style="fill: #00567d"/>
    <path d="M163.34,70.18l-.06-.23h0Z" style="fill: #00567d"/>
    <path d="M156,63.44h.24Z" style="fill: #00567d"/>
    <path d="M163.71,72.5a29.63,29.63,0,0,0,.82,3.47A29.63,29.63,0,0,1,163.71,72.5Z" style="fill: #00567d"/>
    <path d="M192.49,112c.69.85,1.44,1.68,2.22,2.51C193.93,113.68,193.18,112.85,192.49,112Z" style="fill: #00567d"/>
    <path d="M158.73,64l.23.09Z" style="fill: #00567d"/>
    <path d="M165.33,78.2a27.45,27.45,0,0,0,1.53,3.19A27.45,27.45,0,0,1,165.33,78.2Z" style="fill: #00567d"/>
    <path d="M167.46,82.41c.42.68.86,1.33,1.34,2C168.32,83.74,167.88,83.09,167.46,82.41Z" style="fill: #00567d"/>
    <path d="M164.53,76c.24.75.5,1.5.8,2.23C165,77.47,164.77,76.72,164.53,76Z" style="fill: #00567d"/>
    <path d="M152.5,64.13c.38-.14.75-.25,1.11-.35C153.25,63.88,152.88,64,152.5,64.13Z" style="fill: #00567d"/>
    <path d="M157.9,63.7l.3.09Z" style="fill: #00567d"/>
    <path d="M153.94,63.7l.72-.14Z" style="fill: #00567d"/>
    <path d="M157,63.51l.34.06Z" style="fill: #00567d"/>
    <path d="M155,63.51l.69,0Z" style="fill: #00567d"/>
    <path d="M205.9,130.69a8.39,8.39,0,0,1-1.1-1A8.39,8.39,0,0,0,205.9,130.69Z" style="fill: #00567d"/>
    <path d="M197.79,117.74c.62.67,1.23,1.36,1.81,2.08C199,119.1,198.41,118.41,197.79,117.74Z" style="fill: #00567d"/>
    <path d="M204.8,129.7a2.88,2.88,0,0,1-.75-1.21,19.6,19.6,0,0,0-1.59-4.33,19.6,19.6,0,0,1,1.59,4.33A2.88,2.88,0,0,0,204.8,129.7Z" style="fill: #00567d"/>
    <path d="M200.18,120.55a24.12,24.12,0,0,1,1.89,2.87A24.12,24.12,0,0,0,200.18,120.55Z" style="fill: #00567d"/>
    <g>
      <path d="M257,89.08c-.06-.35-.11-.61-.12-.76a1.21,1.21,0,0,1,0,.32c.3-1.43-2-5.52-3.34-7.83a5,5,0,0,0-4.28-2.34,24.51,24.51,0,0,0,1.29-6c.07-.66.14-1.24.23-1.67.5-2.34-.54-7.63-1.65-12.86-.13-.59-.23-1.09-.31-1.48A4.33,4.33,0,0,0,245.74,53a13.8,13.8,0,0,1-3.72-2.3c-4-3.34-10.76-5.75-18.2-6.45a32.21,32.21,0,0,0-11.41,1.14,40,40,0,0,0-1.75-3.78A47.58,47.58,0,0,0,205,34.2c-1-1.2-2-2.34-2.68-3.24a19,19,0,0,0-7.45-5.69L194.2,25l-.65.33c-.2.1-4.85,2.46-6.89,3.87a37.9,37.9,0,0,0-4,3.19,20.55,20.55,0,0,0-6,.34c-.69.11-1.62.24-1.92.24-1-.16-2.15.43-6.3,2.79l-1.22.69c-1.27.73-1.79,1-2,1.08-.57.06-1.73.52-5.75,3a9.74,9.74,0,0,0-3.29-1.4h0l-3.11,3.27a40.26,40.26,0,0,1,6.14,1.44c6,2,9,4.81,10.07,6-.25.57-.49,1.15-.7,1.75-1.11-.64-2.76-1.46-5.24-2.6a21.19,21.19,0,0,0-3.68-1.56,3,3,0,0,0-2.35.76c-1.5,1.06-5.24,4.6-5.68,6.67a20.55,20.55,0,0,0,.21,5.57c.09.79.22,1.88.2,2.18a5.34,5.34,0,0,0,.23,1.45l.23,0h0c.38-.14.75-.25,1.11-.35l.33-.08.72-.14.33-.05.69,0H156l.24,0c.25,0,.5,0,.73,0l.34.06.59.13.3.09.53.19.23.09c.22.11.44.22.63.33s.28.2.42.3c-.24-.67-.48-1.33-.68-1.91-.66-1.87-1.29-3.64-1.71-4.55s-.46-1.45-.15-1.65c1.21-.79,1.72-2.79,1.92-4l.43-1.66c.61.26,1.41.64,2.1,1,2.16,1,4.66,2.25,5.76,2.91-1.31,6.6.68,12,3.21,14.27a62.18,62.18,0,0,1,6.94,8.13c-.21.72-.51,1.8-.74,2.73-1.25-.86-3-2-5.57-3.63A44.93,44.93,0,0,1,163.28,70l.06.23c.08.37.15.75.2,1.14s.1.79.17,1.18a29.63,29.63,0,0,0,.82,3.47c.24.75.5,1.5.8,2.23a27.45,27.45,0,0,0,1.53,3.19c.19.35.4.69.6,1,.42.68.86,1.33,1.34,2A28,28,0,0,0,172,87.94c2,1.88,3.89,3.79,5.74,5.75.14.15.27.3.41.44l.47-.24.72.16a4.66,4.66,0,0,0,2.71-.23,7.93,7.93,0,0,0,3.33-2.66c1.63.08,4-.51,7.22-1.81l.35-.17.49-.22a14.46,14.46,0,0,1,2.51.63c.8.25,1.63.51,2.41.68a9.18,9.18,0,0,0,4.92-.81l.54-.22,3.62,3.05.65,0a54.68,54.68,0,0,1,6.54,0c2.42.19,10.26,2.82,14,4.15a5.66,5.66,0,0,0,1.64,2.63,10.42,10.42,0,0,1,2.26,5.18,17.43,17.43,0,0,1-.5,5.53c-.08.39-.15.68-.19.86-.28.52-1.15,2.15-1.64,3-.35.66-2.17,3.13-3.35,4.68l-3.08,2.08-2.15,1.28-4.94.31-.26-.69L201.25,116c-2.83-1.42-6.13-3.11-9.44-4.86.22.3.44.61.68.91.69.85,1.44,1.68,2.22,2.51l1.2,1.25c.63.65,1.26,1.31,1.88,2s1.23,1.36,1.81,2.08c.2.24.39.48.58.73a24.12,24.12,0,0,1,1.89,2.87l.39.74a19.6,19.6,0,0,1,1.59,4.33,2.88,2.88,0,0,0,.75,1.21,8.39,8.39,0,0,0,1.1,1,14.5,14.5,0,0,0,4.62,2.39,13.12,13.12,0,0,1,2.79,1.14l.22-.06c4.2-1.15,10.48-7.49,12.33-11.25l3.22-2.17.16-.21c.53-.7,3.2-4.21,3.79-5.32.4-.73,1.06-2,1.44-2.68a17.56,17.56,0,0,1,4.3-1,4.3,4.3,0,0,0,1.59-.37c3.41-1.3,9.89-5.69,13.86-8.5C258.73,99.43,257.48,91.91,257,89.08ZM247,55.94a2.62,2.62,0,0,0-.38-.56A2.62,2.62,0,0,1,247,55.94ZM193,74.8a2.63,2.63,0,0,0-.59,2.07l0,.09,0,.36a1,1,0,0,1-.21,0,2.1,2.1,0,0,1-.82-.16,5.45,5.45,0,0,0-.62-.19,2.43,2.43,0,0,0-1.76.35,1.82,1.82,0,0,0-.94-1,2.63,2.63,0,0,0-2.64.5h-.95a5.44,5.44,0,0,0-2.17-2.06,4.65,4.65,0,0,0-.57-.26,16.5,16.5,0,0,0,.66-1.78l0-.14a10.57,10.57,0,0,1,.4-1.38,2.47,2.47,0,0,1,.7-.71A2.44,2.44,0,0,0,185.5,69a6.23,6.23,0,0,0,2-1.12l.17-.15a3.52,3.52,0,0,1,.51-.43l.16,0a2.79,2.79,0,0,0,.89.57,2.87,2.87,0,0,0,.87.24,5.35,5.35,0,0,0,1.28,1.06l.22.14a3.34,3.34,0,0,0,.35.45l.15.18a2,2,0,0,0,1,2.07,2.53,2.53,0,0,0,.18,2.24Zm1.38-7.27a3.24,3.24,0,0,0-1.18-1.1,4,4,0,0,1-.51-.37,2.45,2.45,0,0,0-2-1.18h-.06a1.92,1.92,0,0,0-1.12-.68l-.93-.2a3.64,3.64,0,0,0-3.08,1.32,6.21,6.21,0,0,1-.69.45c-.63,0-1.39.27-2,1.53a5.06,5.06,0,0,0-3,2.78,14,14,0,0,0-.52,1.75c-.11.35-.28.84-.44,1.22a52.1,52.1,0,0,0-5.64-6.31c-2-1.8-3.35-6.65-2-12.11a20.49,20.49,0,0,1,1.56-4.26,22.29,22.29,0,0,1,1.8-3,95.79,95.79,0,0,1,7.71-9.92c.68-.73,1.32-1.37,2-2a35.75,35.75,0,0,1,4.4-3.57c1.42-1,4.45-2.58,5.81-3.29a15.57,15.57,0,0,1,5.4,4.32c.74,1,1.76,2.17,2.83,3.41a46.22,46.22,0,0,1,5.24,6.85A34.61,34.61,0,0,1,209.92,48a27.41,27.41,0,0,1,1.3,5.15c-5.48,6.37-5.69,6.8-5.84,7.09-.27.56-.89,1.87-2.69,8.17h-.06l0,.08c-1.92,1.16-4,2.38-4.47,2.55h0a7,7,0,0,0-1.55.64,2.45,2.45,0,0,0-1.2-2,3.51,3.51,0,0,0-.95-1.94Zm8.5,12.32a56,56,0,0,0-4.94,6.94l-1-.31c-.69-.21-1.33-.41-1.92-.55a18.44,18.44,0,0,0,.79-1.8,26,26,0,0,1,3.5-3c2.86-2,4.27-3.92,6.22-10.62l.07,0,.12-.64c1.76-6.21,2.4-7.67,2.66-8.21.46-.62,3.26-3.94,5.82-6.91h0c1.52-1.7,3.59-3.28,4.25-3.24a12.46,12.46,0,0,0,3.34.08c-.57,1.16-1.32,2.74-2.31,5l-.31.69c-.22.31-1.11,1.4-1.91,2.37-3.34,4.08-6.42,7.92-7.32,10A50.16,50.16,0,0,1,202.83,79.85ZM230,93.46c-2.6-.92-11.92-4.18-15.14-4.43A57.92,57.92,0,0,0,208.5,89L207,87.71c.74-.39,1.4-.76,1.91-1,3.78-2.23,10.47-15.74,12-21.17a34.88,34.88,0,0,1,3.95-8.66c.67-1.12,1.3-2.19,1.84-3.33,1-2.21,1.22-3.66.58-4.71a2.14,2.14,0,0,0-1.22-.95c5.69.89,10.84,2.86,13.81,5.37a17.28,17.28,0,0,0,4.5,2.79c1.06.47,1.06.47,1.19,1.09.08.39.19.9.31,1.51.62,2.88,2.05,9.65,1.66,11.49-.13.6-.2,1.25-.29,2a17.61,17.61,0,0,1-2.18,7.53,15.94,15.94,0,0,1-2,2.73,24.68,24.68,0,0,0-3.67,5.33c-1,1.94-1.53,2.82-4.38,3.88Zm3.36,17.75h0s1.63-.61,3.24-1C235,110.6,233.33,111.21,233.33,111.21Zm.07-.3c0-.19.11-.46.18-.79C233.51,110.45,233.45,110.72,233.4,110.91Zm19.69-20.77c-.11.42-1.56,5-2.55,8.17l-8.67,6.36-6.19,2.74a13.24,13.24,0,0,0,0-3.73c-.4-2.35-1.61-5.56-3.32-7.06a2.21,2.21,0,0,1-.37-.45l4.19-1.56.18-.07a9.36,9.36,0,0,0,5.93-5.32,21.67,21.67,0,0,1,3.22-4.7,19.8,19.8,0,0,0,2-2.65c.86-.18,2.58-.39,3.17.6a37.85,37.85,0,0,1,2.89,5.73C253.44,88.81,253.14,89.86,253.09,90.14Zm-1-8.5a3.58,3.58,0,0,0-3.35-1.55,3.58,3.58,0,0,1,3.35,1.55c.57,1,1.17,2,1.69,3.06C253.29,83.68,252.69,82.59,252.12,81.64Z" style="fill: #c76c61"/>
      <path d="M110.1,194.18l3.38,8.15h2l-10.65-25.72h-1.73L92.17,202.33h2.1l.4-.94c1-2.24,2.17-5,3.06-7.21Zm-6.17-14.72c1.5,3.53,2.88,6.84,4.31,10.29l1.09,2.61H98.46Z" style="fill: #c76c61"/>
      <path d="M118.19,193.37l3.27-4,8.81,13h2.3l-.47-.69c-3.1-4.48-6.38-9.24-9.4-13.71l9.43-11.32h-2.45l-11.49,13.87V176.61h-1.86v25.72h1.86Z" style="fill: #c76c61"/>
      <polygon points="148.01 200.43 135.34 200.43 135.34 189.86 147.02 189.86 147.02 188 135.34 188 135.34 178.47 147.84 178.47 147.84 176.61 133.48 176.61 133.48 202.33 148.01 202.33 148.01 200.43" style="fill: #c76c61"/>
      <path d="M164,190.31h0a15.2,15.2,0,0,0-5.73-2.22,16.52,16.52,0,0,1-5.16-1.74,3.54,3.54,0,0,1-1.81-3.26,4.76,4.76,0,0,1,1.61-3.7,7.31,7.31,0,0,1,4.78-1.54,6.73,6.73,0,0,1,4.45,1.54,4.69,4.69,0,0,1,1.53,3.86v.44h1.9v-.43a6.91,6.91,0,0,0-2.2-5.31,8.55,8.55,0,0,0-5.68-2,9.15,9.15,0,0,0-6,2,6.59,6.59,0,0,0-2.29,5.14,5.54,5.54,0,0,0,2.67,4.81,19.39,19.39,0,0,0,5.77,2,15.34,15.34,0,0,1,5,1.82,4.51,4.51,0,0,1,1.64,3.64,5.24,5.24,0,0,1-1.95,3.91,7.68,7.68,0,0,1-5,1.74,7.48,7.48,0,0,1-4.94-1.74,5.46,5.46,0,0,1-1.91-4.11v-.44h-1.9v.44a7.32,7.32,0,0,0,2.62,5.59,9.3,9.3,0,0,0,6.13,2.16,9.4,9.4,0,0,0,6.2-2.16,7.15,7.15,0,0,0,2.58-5.39A6.07,6.07,0,0,0,164,190.31Z" style="fill: #c76c61"/>
      <path d="M183.5,194.28A7.1,7.1,0,0,1,183,197a7.42,7.42,0,0,1-1.39,2.17,6.07,6.07,0,0,1-2,1.39,5.48,5.48,0,0,1-2.48.57,6,6,0,0,1-2.51-.59,5.48,5.48,0,0,1-2-1.42,8.2,8.2,0,0,1-1.39-2.12,7,7,0,0,1-.5-2.72V176.61h-1.86v17.67a9.4,9.4,0,0,0,.65,3.4,8,8,0,0,0,4.37,4.6,7.29,7.29,0,0,0,3.27.7,8.14,8.14,0,0,0,3.23-.69,8.9,8.9,0,0,0,2.65-1.88,9.7,9.7,0,0,0,1.77-2.73,9.4,9.4,0,0,0,.6-3.4V176.61H183.5Z" style="fill: #c76c61"/>
      <path d="M203.52,196,200,191.08a8.8,8.8,0,0,0,1.37-.43,7.6,7.6,0,0,0,2.43-1.56,7.25,7.25,0,0,0,1.67-2.36,7,7,0,0,0,.61-2.82,6.32,6.32,0,0,0-.65-2.89,9.11,9.11,0,0,0-1.6-2.3,6.37,6.37,0,0,0-2.46-1.58,7.4,7.4,0,0,0-2.88-.53h-9v25.72h1.9V191.18h6.45l7.9,11.15H208l-.48-.69C206.22,199.79,204.87,197.9,203.52,196Zm-12.16-6.69V178.47h7.13a6.1,6.1,0,0,1,2.16.41,7.5,7.5,0,0,1,1.92,1.21,3.83,3.83,0,0,1,1,1.42,5.66,5.66,0,0,1,.62,2.4,5.79,5.79,0,0,1-.59,2.3,3.78,3.78,0,0,1-1.09,1.5,5.75,5.75,0,0,1-1.82,1.14,6.4,6.4,0,0,1-2.2.47Z" style="fill: #c76c61"/>
      <polygon points="209.69 202.33 211.55 202.33 211.55 190.27 221.51 190.27 221.51 188.42 211.55 188.42 211.55 178.47 222.82 178.47 222.82 176.61 209.69 176.61 209.69 202.33" style="fill: #c76c61"/>
      <path d="M88.33,209.82a14,14,0,0,0-4.17-2.93,12.36,12.36,0,0,0-10.09,0A12.91,12.91,0,0,0,70,209.82a13.4,13.4,0,0,0-2.6,3.72l0,.1v.11a10.56,10.56,0,0,1-.09,2.07c-.29,2-.61,4.22-.77,6.46v.13a14,14,0,0,0,.64,2.11,13.25,13.25,0,0,0,2.81,4.3,13.86,13.86,0,0,0,4.13,2.89,12,12,0,0,0,10.09,0,12.7,12.7,0,0,0,4.17-2.93,14,14,0,0,0,2.73-4.26,15,15,0,0,0,1-5.22,13.46,13.46,0,0,0-1-5.22A12.81,12.81,0,0,0,88.33,209.82Zm1,14A11.78,11.78,0,0,1,87,227.55,10.83,10.83,0,0,1,83.42,230a12.08,12.08,0,0,1-4.33.88,11.61,11.61,0,0,1-4.32-.87,10,10,0,0,1-3.46-2.49,12.67,12.67,0,0,1-2.43-3.73,12.36,12.36,0,0,1,0-9h0a11.52,11.52,0,0,1,2.42-3.77,11.18,11.18,0,0,1,3.52-2.42,10.8,10.8,0,0,1,4.31-.91,10.45,10.45,0,0,1,4.31.91A11.28,11.28,0,0,1,87,211.05a12.23,12.23,0,0,1,2.38,3.78,11.1,11.1,0,0,1,.87,4.47A11.26,11.26,0,0,1,89.34,223.83Z" style="fill: #c76c61"/>
      <path d="M108.15,208.54h0a8.22,8.22,0,0,0-2.4-1.52,7.75,7.75,0,0,0-2.92-.53H94.94V232.2h1.9V221.05h6a8,8,0,0,0,2.94-.53,8.39,8.39,0,0,0,2.38-1.56,7.19,7.19,0,0,0,1.7-2.36,6.74,6.74,0,0,0,.54-2.81,6.88,6.88,0,0,0-.53-2.89A8.17,8.17,0,0,0,108.15,208.54Zm0,7.28a7.6,7.6,0,0,1-1.27,1.77,5.81,5.81,0,0,1-1.76,1.19,5.7,5.7,0,0,1-2.26.41h-6V208.34h6a6.36,6.36,0,0,1,2.22.42,6.07,6.07,0,0,1,1.83,1.17,6.31,6.31,0,0,1,1.27,1.73,5.16,5.16,0,0,1,.42,2.13A5.3,5.3,0,0,1,108.11,215.82Z" style="fill: #c76c61"/>
      <polygon points="114.12 219.73 125.8 219.73 125.8 217.88 114.12 217.88 114.12 208.34 126.62 208.34 126.62 206.48 112.26 206.48 112.26 232.2 126.79 232.2 126.79 230.3 114.12 230.3 114.12 219.73" style="fill: #c76c61"/>
      <polygon points="147.76 229.03 131.8 206.48 129.86 206.48 129.86 232.2 131.76 232.2 131.76 209.67 147.72 232.2 149.61 232.2 149.61 206.48 147.76 206.48 147.76 229.03" style="fill: #c76c61"/>
      <path d="M74.24,202.33l.09-.32c1.26-4.62,2.59-9.32,3.87-13.87.7-2.47,1.4-4.94,2.08-7.4l6,21.59h1.94l.08-.33c2.14-7.83,4.67-16.95,6.87-24.84l.16-.55h-2L91.55,183c-1.43,5.25-2.91,10.72-4.31,15.79L81,176.61H79.54l-.08.32-2.63,9.35c-1.16,4.15-2.33,8.31-3.48,12.43-1.4-4.92-2.81-9.94-4.2-14.91l-.15-.56-.27.68c-.2.52-.41,1.05-.61,1.58-.09.23-.18.46-.26.69l4.49,16.14Z" style="fill: #c76c61"/>
    </g>
    <g>
      <rect x="110.29" y="116.71" width="10.89" height="55.22" style="fill: #00567d"/>
      <path d="M140.74,117l-.38-.24H129.85v55.22h35.27V163.1H140.74Z" style="fill: #00567d"/>
      <polygon points="179.62 120.98 179.62 116.71 168.73 116.71 168.73 121.57 168.73 171.93 204 171.93 204 163.1 179.62 163.1 179.62 120.98" style="fill: #00567d"/>
      <path d="M164,110.63a8.12,8.12,0,0,1-6.45-3.46l-2.63,2.48s2.12,4.6,9.08,4.6c5.87,0,8.32-3.2,8.32-6.38,0-8.51-11.91-5.17-11.91-9.94,0-1.49,1.33-2.6,3.65-2.6A5.38,5.38,0,0,1,169,98l3-2s-1.55-4.28-8.32-4.28c-5.17,0-8,2.92-8,6.31,0,8.67,12,4.8,12,10C167.72,109.65,166.33,110.63,164,110.63Z" style="fill: #00567d"/>
      <polygon points="79.07 91.84 74.69 91.84 74.69 114.06 88.88 114.06 88.88 110.5 79.07 110.5 79.07 91.84" style="fill: #00567d"/>
      <path d="M103,91.84H98.5l-8.16,22.22h4.57l1.87-5.55h7.88l1.93,5.55h4.54Zm-5,13.33,2.76-8.06,2.83,8.06Z" style="fill: #00567d"/>
      <path d="M132.17,114v-3.34h-.92c-2.92,0-3.05-4.31-5.33-6.19a5.83,5.83,0,0,0,3.84-5.65c0-5-2.92-7-8.38-7h-7.81v22.22H118v-8.32h2.35c4.7,0,2.86,8.48,9.59,8.48A9.69,9.69,0,0,0,132.17,114Zm-11.3-11.56H118v-7h3.27c2.67,0,4.22,1.34,4.22,3.56S123.51,102.44,120.87,102.44Z" style="fill: #00567d"/>
      <path d="M139,114.06v-9h2.38c4.67,0,2.92,9.18,9.59,9.18a10.3,10.3,0,0,0,2.32-.22v-3.34h-.95c-3.21,0-2.73-5.58-6-7.58,2.51-1.34,4.73-4.67,4.73-11.24h-4.32c0,7.11-2.38,9.68-5.46,9.68H139V91.84h-4.38v22.22H139Z" style="fill: #00567d"/>
      <path d="M82.37,86.11A6.7,6.7,0,0,0,84.9,83,21.44,21.44,0,0,0,86.17,79a23.07,23.07,0,0,0,.4-4.49,22.61,22.61,0,0,0-.4-4.46,21.76,21.76,0,0,0-1.27-4,6.28,6.28,0,0,0-2.54-3.21A6.92,6.92,0,0,0,72,66.09,23.17,23.17,0,0,0,70.74,79,21.58,21.58,0,0,0,72,83a7,7,0,0,0,2.54,3.15,7.12,7.12,0,0,0,3.91,1.24A6.89,6.89,0,0,0,82.37,86.11Zm-8.75-3.9a14,14,0,0,1-1.09-3.55,24.35,24.35,0,0,1-.34-4.14,23.43,23.43,0,0,1,.34-4.09,13.16,13.16,0,0,1,1.14-3.64,5.52,5.52,0,0,1,1.87-2.39,5.12,5.12,0,0,1,2.92-.82,4.88,4.88,0,0,1,2.91.82,5.66,5.66,0,0,1,1.91,2.39,16.67,16.67,0,0,1,1.07,3.66,17.69,17.69,0,0,1,.37,4.07,18.28,18.28,0,0,1-.37,4.12,17.17,17.17,0,0,1-1.06,3.57,5.86,5.86,0,0,1-1.91,2.47,5.78,5.78,0,0,1-2.92.83,5.85,5.85,0,0,1-2.94-.83A6.06,6.06,0,0,1,73.62,82.21Z" style="fill: #00567d"/>
      <polygon points="92.95 86.77 94.75 86.77 94.75 62.36 87.84 62.36 87.84 64.16 92.95 64.16 92.95 86.77" style="fill: #00567d"/>
      <path d="M101.15,85.12a8,8,0,0,0,2.43,1.61,7.28,7.28,0,0,0,3.06.62,7.38,7.38,0,0,0,3-.61,8.36,8.36,0,0,0,2.49-1.63,9.19,9.19,0,0,0,1.64-2.46,7.88,7.88,0,0,0,.62-3,7.67,7.67,0,0,0-.62-3,8.44,8.44,0,0,0-1.67-2.42A6.68,6.68,0,0,0,110.5,73a3.42,3.42,0,0,0-.57-.3,4.89,4.89,0,0,0,.95-.74A6.32,6.32,0,0,0,112.23,70a5.93,5.93,0,0,0,.46-2.26,6.21,6.21,0,0,0-.47-2.36,6.06,6.06,0,0,0-1.34-1.88,8.17,8.17,0,0,0-1.91-1.3,6,6,0,0,0-2.33-.51,5.77,5.77,0,0,0-2.36.51,6.43,6.43,0,0,0-2,1.29,5.35,5.35,0,0,0-1.36,1.9,6.12,6.12,0,0,0-.38,2.35,5.65,5.65,0,0,0,.38,2.27,6.4,6.4,0,0,0,1.25,1.78l.1.12a3.82,3.82,0,0,0,1,.79,4.27,4.27,0,0,0-.49.28,9.74,9.74,0,0,0-1.7,1.21,8.79,8.79,0,0,0-1.59,2.41,6.94,6.94,0,0,0-.63,3,7.95,7.95,0,0,0,2.28,5.49Zm1.52-15.77a3.43,3.43,0,0,1-.35-1.57,3.66,3.66,0,0,1,.34-1.6,6,6,0,0,1,1-1.37,4.31,4.31,0,0,1,1.29-.91,4.72,4.72,0,0,1,1.72-.32,4.92,4.92,0,0,1,1.59.3,5.58,5.58,0,0,1,1.36.88l.07.07a4.4,4.4,0,0,1,.9,1.33,4.07,4.07,0,0,1,.32,1.62,3.41,3.41,0,0,1-.32,1.58,3.89,3.89,0,0,1-.9,1.33,8.26,8.26,0,0,1-1.41,1,4.35,4.35,0,0,1-1.61.31,4,4,0,0,1-1.7-.32,4.5,4.5,0,0,1-1.35-.92A4.65,4.65,0,0,1,102.67,69.35Zm-1.51,8a5.07,5.07,0,0,1,1.22-1.84,6.37,6.37,0,0,1,2-1.31,5.29,5.29,0,0,1,2.31-.43,5.49,5.49,0,0,1,2.28.43,6.91,6.91,0,0,1,1.9,1.32,5,5,0,0,1,1.26,1.84,5.75,5.75,0,0,1,.44,2.25,6.1,6.1,0,0,1-.44,2.29,5.84,5.84,0,0,1-1.27,1.85A5.63,5.63,0,0,1,108.93,85a5.76,5.76,0,0,1-4.63,0,5.2,5.2,0,0,1-3.14-3.08,6.07,6.07,0,0,1-.48-2.29A6.65,6.65,0,0,1,101.16,77.37Z" style="fill: #00567d"/>
      <path d="M244.74,185.94a4.06,4.06,0,0,0-1.28-1.52,5.43,5.43,0,0,0-1.28-.71,9.59,9.59,0,0,0-2.57-.62A23.37,23.37,0,0,0,237,183a16,16,0,0,1-2.56-.15,5,5,0,0,1-1.8-.67,3.69,3.69,0,0,1-.68-.56,3.1,3.1,0,0,1-.51-.68,3.85,3.85,0,0,1-.27-.63,3.17,3.17,0,0,1-.1-1.33,3,3,0,0,1,.18-.65,9.56,9.56,0,0,0,.12-7.43,16.24,16.24,0,0,0-1.86-3.27c-1.66-2.39-3.13-4.71-4.43-7-.65-1.14-1.26-2.27-1.82-3.39s-1.09-2.24-1.57-3.34-.92-2.21-1.32-3.3c-.2-.55-.38-1.1-.56-1.64a49.62,49.62,0,0,1-1.68-6.55c-.1-.55-.19-1.1-.28-1.64a8.57,8.57,0,0,0-4.55-6.54,13.12,13.12,0,0,0-2.79-1.14,14.5,14.5,0,0,1-4.62-2.39,8.39,8.39,0,0,1-1.1-1,2.88,2.88,0,0,1-.75-1.21,19.6,19.6,0,0,0-1.59-4.33l-.39-.74a24.12,24.12,0,0,0-1.89-2.87c-.19-.25-.38-.49-.58-.73-.58-.72-1.19-1.41-1.81-2.08s-1.25-1.33-1.88-2l-1.2-1.25c-.78-.83-1.53-1.66-2.22-2.51-.24-.3-.46-.61-.68-.91-.1-.14-.21-.27-.31-.4A145.11,145.11,0,0,0,179.83,96c-.56-.63-1.14-1.24-1.72-1.86-.14-.14-.27-.29-.41-.44-1.85-2-3.76-3.87-5.74-5.75a28,28,0,0,1-3.16-3.56c-.48-.64-.92-1.29-1.34-2-.2-.33-.41-.67-.6-1a27.45,27.45,0,0,1-1.53-3.19c-.3-.73-.56-1.48-.8-2.23a29.63,29.63,0,0,1-.82-3.47c-.07-.39-.12-.78-.17-1.18s-.12-.77-.2-1.14l-.06-.23a10.37,10.37,0,0,0-1.07-2.78A8.27,8.27,0,0,0,161,65.58a7.06,7.06,0,0,0-1-.88c-.14-.1-.28-.21-.42-.3s-.41-.22-.63-.33l-.23-.09-.53-.19-.3-.09-.59-.13-.34-.06c-.23,0-.48,0-.73,0h-.56l-.69,0-.33.05-.72.14-.33.08c-.36.1-.73.21-1.11.35h0l-.23,0a2,2,0,0,1-.47-.15c-2.57-2.64-5.11-5.44-7.8-8.4l-1.69-1.86,10.76-11.3,3.11-3.27H42.47l13.26,82.54,2.12,13.25c.15.81.32,1.61.48,2.41,1.08,5.45,2.41,10.79,3.84,16,.33,1.2.66,2.4,1,3.59q1,3.57,2,7.07a58.28,58.28,0,0,1,1.23,5.87c.11.69.21,1.38.31,2.06a31.26,31.26,0,0,1,.39,6.19,2.77,2.77,0,0,1-.14.7c-.13.36-.28.73-.43,1.1l-1,2.54c-.5,1.28-1,2.59-1.5,3.9s-.94,2.63-1.33,3.89-.71,2.48-.94,3.59a18.8,18.8,0,0,0,.21,7c.14.78.29,1.55.45,2.32.26,1.27.51,2.47.66,3.65s.36,2.1.57,3.11a16.63,16.63,0,0,1,.55,5.44c-.84,5.77-1.9,12.94,1.11,19.85,2,4.65,4.21,9.59,6.72,14.33a5.83,5.83,0,0,0,.93,1.29,9.12,9.12,0,0,0,2.79,2.06,7.75,7.75,0,0,0,1.61.57,29.13,29.13,0,0,0,2.94.51c1.6.21,3.21.32,4.78.43l1.54.1,35.66,2.59,11.18.81c12.9.94,25.31,1.83,37.69,2.71l5.31.38a.51.51,0,0,1,.15.07,1.5,1.5,0,0,1,.31.31,5.83,5.83,0,0,1,.53.8,38,38,0,0,1,1.67,3.6l.55,1.31c.26.59.53,1.2.82,1.79l0,.08c1.27,2.58,2.92,5,5.45,5.75a1.15,1.15,0,0,0,.17.06,3.56,3.56,0,0,0,.47.1,3.09,3.09,0,0,0,.35.07c.13,0,.27,0,.41,0s.3,0,.46,0l.51,0a5.17,5.17,0,0,0,4.2-2.59,8.75,8.75,0,0,0,.52-1,15.64,15.64,0,0,0,1.08-3.52c.17-.87.3-1.79.41-2.73.05-.48.09-1,.13-1.45s.07-1,.1-1.47c.08-1.48.12-3,.17-4.46s.08-2.88.17-4.21c0-.33,0-.64.07-.94a6.09,6.09,0,0,1,.34-1.83h0a1.55,1.55,0,0,1,.27-.24.53.53,0,0,1,.1-.06.9.9,0,0,1,.24-.12l.11,0,.31-.07.07,0c.13,0,.27,0,.41,0h.12l.35,0h.14l.39.07h.08l.46.11.13,0,.34.1.14,0,.38.14,0,0a3.52,3.52,0,0,1,.39.16l.11,0,.26.11.09,0,.28.14h0l0,0,.73.37.28.12c.17.07.33.15.51.21l.33.12.47.16.36.11c.15,0,.3.09.46.12l.37.09.45.09.39.06.45.07.39,0,.45,0h.39a3.38,3.38,0,0,0,.45,0h.46l.4,0,.46,0,.41,0,.45-.07.4-.07.46-.1.39-.09.47-.13.38-.11.48-.17.35-.13.54-.23c.09,0,.19-.07.28-.12l.76-.38,0,0c.35-.19.69-.4,1-.61s.8-.55,1.17-.85a12.25,12.25,0,0,0,1.25-1.13l0,0,.08-.09.49-.54a13.71,13.71,0,0,0,3-6,11.73,11.73,0,0,0,.25-1.68c0-.26.05-.52.09-.77a17.12,17.12,0,0,1,.54-2.34c.07-.27.15-.53.24-.8.26-.79.55-1.61.85-2.43s.62-1.72.89-2.57c.48-1.48,1-3,1.54-4.45s1-2.75,1.44-4.14a8.47,8.47,0,0,0,.28-1c.08-.34.15-.68.21-1l.12-.59a5.83,5.83,0,0,1,.4-1.33l.06-.13c1.27-2.19,2.54-4.38,3.83-6.58s2.58-4.4,3.9-6.64,2.65-4.49,4-6.79l4.19-7.05C245.25,189.44,245.52,187.51,244.74,185.94Zm-3.81,3.94c-5.72,9.61-10.87,18.28-16,27.1a9.68,9.68,0,0,0-1,3.15,12.56,12.56,0,0,1-.38,1.6c-.44,1.34-.92,2.7-1.41,4.06l0,.08c-.52,1.46-1.06,3-1.55,4.47-.26.81-.56,1.64-.86,2.46a29,29,0,0,0-1.91,7.23,9.59,9.59,0,0,1-.83,3.17,37.94,37.94,0,0,0-3.89-10.32c-12.15-22.17-29-26-39.29-23-8.58,2.52-11.3,7.27-12,11a5.9,5.9,0,0,0,2,5.26,7.7,7.7,0,0,0,3.22,1.31,5.35,5.35,0,0,1-1.91-3.94c0-2.65,2.27-4.92,5.48-5.85.18-.06.36-.1.52-.14a11.2,11.2,0,0,1,2.75-.32c10.41.25,10,10.19,8.64,13.45-4.56,10.57-19.43,10.64-43.58,14.79-14.29,2.46-29.79,4.71-41.84,6.35L86.89,251l-1.54-.11a44.86,44.86,0,0,1-7.17-.85,5.29,5.29,0,0,1-3-2.16c-2.45-4.63-4.6-9.5-6.6-14.09a24.18,24.18,0,0,1-1.62-11.52c.15-2.21.46-4.37.76-6.43a10.36,10.36,0,0,0,.09-2.15,27.44,27.44,0,0,0-.68-4.51c-.19-.95-.39-1.93-.52-2.86-.17-1.31-.44-2.62-.7-3.89-.58-2.85-1.13-5.54-.65-7.94a56.09,56.09,0,0,1,2.64-8.34c.08-.23.17-.46.26-.69.2-.53.41-1.06.61-1.58l.27-.68c.09-.23.19-.47.28-.71.33-.85.66-1.67,1-2.45,1-2.64-.14-9.89-1-14.14V150H90.59v21.93h10.89V116.71H90.59v24.37H69.21V116.71H58.46l-.63-3.91a11,11,0,0,0,5.73,1.45,9.43,9.43,0,0,0,8.06-4.16l-2.57-2.7s-2,3-5.27,3-6.1-2.16-6.1-7.43,2.32-7.49,5.37-7.49c4.32,0,4.44,4.57,4.44,4.57l4.07-.67c0-1.17-.7-7.74-8.54-7.74-3.52,0-6.27,1.32-8,3.89l-1.41-8.77H67.43V84.93H54.81l8.37-8.7c.19-.21.39-.4.57-.59a20.62,20.62,0,0,0,2.2-2.5,6.72,6.72,0,0,0,1.4-3.88,7.47,7.47,0,0,0-.59-3,8.14,8.14,0,0,0-1.56-2.38,7.85,7.85,0,0,0-2.36-1.58,7.46,7.46,0,0,0-2.94-.62,8.32,8.32,0,0,0-3.1.66,6.17,6.17,0,0,0-2.27,1.77,10,10,0,0,0-2,6.46v.44h1.81v-.43a10.88,10.88,0,0,1,.37-3,6.67,6.67,0,0,1,1.17-2.36,4.45,4.45,0,0,1,1.66-1.2,6.5,6.5,0,0,1,2.37-.51,5.33,5.33,0,0,1,2.24.47,5.83,5.83,0,0,1,1.77,1.18A7.32,7.32,0,0,1,65.12,67a5.56,5.56,0,0,1,.43,2.24,4.59,4.59,0,0,1-1.1,2.91l-2.64,2.91L53.2,83.94,46.56,42.6H148.07l-8.29,8.7-2.23,2.35L139.73,56l1.15,1.26.54.6c2.7,3,5.26,5.79,7.88,8.49l.28.28.33.22a5.22,5.22,0,0,0,2.59.72h.63l.23-.08.36-.14a6.6,6.6,0,0,1,2.28-.46,3.42,3.42,0,0,1,1.8.46,5.86,5.86,0,0,1,2.28,4.36,31.16,31.16,0,0,0,9.48,18.71c1.87,1.77,3.67,3.57,5.42,5.41a143.36,143.36,0,0,1,9.67,11.33c1.36,1.79,2.7,3.6,4,5.47a45,45,0,0,0,4.76,5.51c3.15,3.27,6.13,6.36,7.25,11.11.51,2.17,2.71,4.11,5.06,5.46a18.49,18.49,0,0,0,3.84,1.68c3.83,1.1,4.61,3.16,4.86,4.85,1.41,9.31,5.3,18.31,12.24,28.31,1.82,2.62,2.53,4.48,1.36,7.45a6.48,6.48,0,0,0,.4,5.58,7.49,7.49,0,0,0,5.43,3.64,18.6,18.6,0,0,0,3.14.2,20.39,20.39,0,0,1,2.22.09c1.28.15,2.2.5,2.41.93S241.57,188.82,240.93,189.88Z" style="fill: #00567d"/>
    </g>
  </g>
</svg>
