<svg xmlns="http://www.w3.org/2000/svg" width="300" height="300" viewBox="0 0 300 300">
  <g>
    <path d="M94.55,127.74a224,224,0,0,0-33.26.13c-5-.69-5.86-1.24-5.08-2.83a10.18,10.18,0,0,0,.54-4.32l3-.87s34.12-.29,35.51-1.93-3.16-8.28-7-10.09S65.08,105.37,62,101.36s-.46-1.79-.46-1.79,20.48-.36,23.59.29a90.55,90.55,0,0,0,9.25,1l3.28-.89s1-2.54-3.18-4.92S59.35,82.7,56.74,80.79A21.59,21.59,0,0,1,52,75.1S84.2,85.6,87.05,86.88s6.63,2.48,7.92,3.28,5.61,1.35,5.61,1.35a9.32,9.32,0,0,0-5.09-6c-4.13-1.78-5-1.7-7.65-3.61s-16.63-13-17-14.21a34.3,34.3,0,0,0-2.52-4.37s25,15.05,27.35,17,7.31,3.34,8.27,3.87,2.83-2.69-1-7.56A42.18,42.18,0,0,0,91.67,66C86.81,62.79,68,45.14,67.76,42.42a19,19,0,0,1,0-4s27.2,19.36,31.77,26.29,10.44,11.3,12.31,11.76,5.38-4.75,5.38-4.75l-9.3-23-2.36-13.23,3.2-1.79s4.84,6.6,6.22,12,3.48,15.56,4.59,17.91a50.39,50.39,0,0,0,3.89,6.07s1.61-2.57.49-4.92a37.11,37.11,0,0,1-2.06-6.23,47.51,47.51,0,0,1-.81-5.73l2.52-5.77,4.63,3.62s1.81-.16,2.43,3.45,1.92,8.08,2,9,3.29,2.77,3.29,2.77,1-6.19-.53-16.74-1-16-1-16l5.45-.47s2.33,13.47,2,16.25.76,12.45,1.83,14.19,5-9.29,4.58-14.13-1-13.56-.58-15.43,2.33-8.44,2.33-8.44,1.74-1.07,2.84,4.64,0,23.11-.36,25.88-.78,8.62.39,11.57,2.64,2.22,4,0,5-16.31,7-18,5.39-4.74,5.39-4.74-.64,6.77-2,8.72a16.44,16.44,0,0,0-3,7.58c-.35,3.09-1.81,10.84-1.81,10.84s7.44-9.18,9-12.67,3.44-6.1,6.43-10.33,8.07-12.59,7.88-14.72,14.32-4.35,15.2-4.73S176.71,61.14,176.3,63.61s-2.78,13.68-2.78,13.68S190.37,63.93,191.4,61.7s5.71-8.12,8.25-10.48,7.69-6.46,9.86-6S198.88,63.5,196.26,65s-10.51,9.14-11.48,12a30.64,30.64,0,0,1-2.59,5.41S203.81,67.65,205.5,66s15.65-13.25,17.08-14.28,11.82-8,11.82-8-1.49,7.46-3.18,9.13S215.1,63.93,213.46,66.21s-15,14.11-15,14.11l-7.77,8.91s43.78-19.65,55.59-28c4.05-2.88.74,3.87-8,10.1-16.69,11.85-47.77,29.51-47.77,29.51s43.9-4.1,46-4.89c1.16-.44,8.25-3,8.12-.77-.1,1.76-7.58,8.39-6.21,8.54,3.06.35-39,4.89-43.37,10.46s13.27,1.6,16.93,1.59,20.71-.56,16.45,3.16-10.12,3-14.11,2.74-14.37-.28-17.72,3.36-2.77,3.3-.6,3.72a96.32,96.32,0,0,0,19.25.17c5.73-.8,8.39,1.72,8.39,1.72s-7.62,3.71-10.07,3.61-15.33-.81-16.89-1.29-7.84-2.37-8.35-4.77.91-7.1.62-10.43.14-19.43-20-33.56-29.84-7.35-33.45-6.74-14.2,2.94-24.29,15.73-10.57,23.34-10.78,27.93a58.43,58.43,0,0,0,0,7" style="fill: #f15a29"/>
    <path d="M137.18,106.62l-2.89,3.15s.53,3.15,2.63,4a20,20,0,0,0,6,.78c.79,0,5-2.89,5-2.89l3.15-6.57,1.32-12.35s-7.36-6-13.94-4.21-14.45,6.32-15,7.1-10,13.4-10,14.71,2.37,14.73,4,16.57,10.58,7.68,22.23,9.09,23.91-2.82,28.74-6.84,3-22.7,3-22.7-2.2-6.43-4.41-9.66-12.51-10.63-12.51-10.63,7.87,11.16,9.29,17.87c.5,2.42-.11,11-4.42,16.08-3.75,4.41-10.87,5.52-15.08,5.43-9-.21-20.28-3.9-20.81-8.63s-2.63-5.26,2.11-10.78,3.23-3.7,7.86-7.32,6.28-6.84,10.27-1.61-3.94,10.25-6.57,9.46" style="fill: #f15a29"/>
    <path d="M85,144.05l20.6-.08c2,0,3.75,0,5.26.12a25.57,25.57,0,0,1,4,.49,14.19,14.19,0,0,1,3.15,1,14.37,14.37,0,0,1,2.7,1.61,12.43,12.43,0,0,1,3.93,4.85,14.92,14.92,0,0,1,1.33,6.3,13.6,13.6,0,0,1-2.39,8.33,14.52,14.52,0,0,1-7.06,5.17,16.22,16.22,0,0,1,8,5.17,12.91,12.91,0,0,1,2.79,8.65,14.42,14.42,0,0,1-1.77,7A15.26,15.26,0,0,1,120.6,198a22.16,22.16,0,0,1-3.16,1.73,16.84,16.84,0,0,1-3.43,1.09,31.06,31.06,0,0,1-4.33.57c-1.61.1-3.55.16-5.82.16l-18.9.16m22.91-35.31c1.16-1.24,1.73-3.4,1.73-6.47s-.54-5.12-1.61-6.3-3-1.78-5.66-1.78h-1.21v16.4h.73c2.85,0,4.86-.61,6-1.85m.56,25.17q1.74-2,1.82-6.91,0-4.44-1.86-6.43c-1.24-1.32-3.2-2-5.9-2h-1.37v17.3h1.21q4.36,0,6.1-2" style="fill: #603812"/>
    <rect x="136.75" y="144.05" width="16.17" height="57.7" style="fill: #603812"/>
    <path d="M207.36,198.84l-3.24.89c-1.77.49-3.43.91-5,1.25s-3,.64-4.37.85-2.72.38-4,.49-2.65.16-4,.16a30,30,0,0,1-9.7-1.41,19.36,19.36,0,0,1-7.43-4.73,25.65,25.65,0,0,1-6.15-9.46,35.06,35.06,0,0,1-2-12.28,38.27,38.27,0,0,1,2-12.65,29,29,0,0,1,5.74-9.9,25.79,25.79,0,0,1,8.93-6.39,29,29,0,0,1,11.6-2.25c1.4,0,2.86.06,4.36.19s3.05.34,4.61.61c.22.06.55.12,1,.2s1.31.26,2.55.53h-.08c.37.05.82.13,1.33.25a12,12,0,0,1,1.25.31l-.08-.08,2.67.57.08,8.08c-2.1-.43-3.91-.78-5.41-1s-3.1-.5-4.77-.69a41.25,41.25,0,0,0-4.28-.28c-5,0-8.6,1.77-10.92,5.13s-3.5,8.77-3.55,16.2A34.62,34.62,0,0,0,180,185a14.43,14.43,0,0,0,4.29,6.79v-.09a8.36,8.36,0,0,0,2.87,1.41,20.58,20.58,0,0,0,4.24.61v-20h15.92" style="fill: #603812"/>
    <path d="M69.5,261.25l-2-.49c-.54-.12-1.1-.24-1.69-.35a8.23,8.23,0,0,0-1.47-.16,2.12,2.12,0,0,0-1.24.33,2.21,2.21,0,0,0-.72,1,6,6,0,0,0-.32,1.7C62,264,62,264.79,62,265.7a6.62,6.62,0,0,0,1.15,4.15,3.92,3.92,0,0,0,3.15,1.41,6.31,6.31,0,0,0,.74-.06l.94-.13,1.18-.19.47,2.8-.41.11c-1.48.43-2.69.75-3.64.93A13.11,13.11,0,0,1,63,275a7.06,7.06,0,0,1-2.9-.59,6.27,6.27,0,0,1-2.23-1.68,7.49,7.49,0,0,1-1.43-2.57,10.12,10.12,0,0,1-.51-3.28,11.42,11.42,0,0,1,.61-3.77,9.14,9.14,0,0,1,1.69-3,7.78,7.78,0,0,1,6-2.66,18.9,18.9,0,0,1,2.1.14c.8.11,1.71.27,2.73.51l.38.09" style="fill: #603812"/>
    <path d="M86.24,257.22v17.51H80.56v-1.14l-1.52.63c-.42.17-.79.29-1.12.39s-.62.14-.88.18a5.32,5.32,0,0,1-.78.06,4.26,4.26,0,0,1-3-1.17v0a4.11,4.11,0,0,1-1.16-1.89,10.89,10.89,0,0,1-.31-2.91V258.13l5.71-.91V268c0,.7,0,1.25.06,1.62a1.61,1.61,0,0,0,.28.83,1.1,1.1,0,0,0,.68.34c.3,0,.71.09,1.22.13a1.85,1.85,0,0,0,.4,0l.4,0V258.07" style="fill: #603812"/>
    <path d="M89.64,270.61l.65.39c.61.29,1.13.51,1.57.67s.92.3,1.42.43a5.42,5.42,0,0,0,1.37.19,3.21,3.21,0,0,0,.81-.1,2.47,2.47,0,0,0,.7-.3,1.5,1.5,0,0,0,.49-.44.83.83,0,0,0,.15-.54,2.17,2.17,0,0,0,0-.49,1,1,0,0,0-.25-.43,4.75,4.75,0,0,0-.62-.54c-.27-.21-.65-.48-1.15-.81l-1.91-1.3a10.78,10.78,0,0,1-1.44-1.1,6.35,6.35,0,0,1-1-1.1,4.21,4.21,0,0,1-.53-1.19,5.63,5.63,0,0,1-.16-1.41,5.18,5.18,0,0,1,.42-2.1,4.74,4.74,0,0,1,1.19-1.62,5,5,0,0,1,1.81-1,7.15,7.15,0,0,1,2.32-.36l.88,0c.3,0,.63,0,1,.08l1.28.2c.49.08,1,.19,1.67.32l1.06.23,0,2.95-.65-.26c-.59-.22-1.09-.39-1.51-.51s-.88-.23-1.36-.33a5.79,5.79,0,0,0-1.28-.17,2.12,2.12,0,0,0-1.18.34,1,1,0,0,0-.47.93,3,3,0,0,0,0,.46.75.75,0,0,0,.18.37,2.36,2.36,0,0,0,.45.39l.9.6v0l2,1.26a15.86,15.86,0,0,1,1.58,1.17,5.57,5.57,0,0,1,1,1.16,4,4,0,0,1,.57,1.25,5.56,5.56,0,0,1,.18,1.46,5.73,5.73,0,0,1-.46,2.28,5.06,5.06,0,0,1-1.26,1.78,5.71,5.71,0,0,1-1.93,1.14,7.39,7.39,0,0,1-2.44.39,14.81,14.81,0,0,1-2.57-.28c-1-.18-2.13-.43-3.29-.72l-.36-.09" style="fill: #603812"/>
    <path d="M110.54,270.36a1,1,0,0,0,.28.55,1.58,1.58,0,0,0,.65.25,9.65,9.65,0,0,0,1.17.1,1.92,1.92,0,0,0,.41,0,3.86,3.86,0,0,0,.53-.07l.53-.06v2.77c-.51.16-.83.24-.94.27l-1.21.32v0l-1,.24-.74.13-.62.07a6.25,6.25,0,0,1-.64,0,3.69,3.69,0,0,1-4.16-4V261h-1.65v-2.76l2-.71a2.35,2.35,0,0,0,.63-.38,4.11,4.11,0,0,0,.47-.47l.19-.24v0l1.66-2.36h2.43v3.48h3.63V261h-3.63v8.31a8.13,8.13,0,0,0,.06,1" style="fill: #603812"/>
    <path d="M130.53,269.56a8.52,8.52,0,0,1-1.62,2.89,7.35,7.35,0,0,1-2.53,1.87A8.05,8.05,0,0,1,123,275a8.47,8.47,0,0,1-3.27-.6,7.16,7.16,0,0,1-2.47-1.71,7.53,7.53,0,0,1-1.58-2.68,10.79,10.79,0,0,1-.54-3.52,11.54,11.54,0,0,1,.58-3.76,8.63,8.63,0,0,1,1.61-2.89,7,7,0,0,1,2.52-1.87,8,8,0,0,1,3.33-.67,8.84,8.84,0,0,1,3.31.59A6.76,6.76,0,0,1,129,259.6a7.7,7.7,0,0,1,1.57,2.69,11,11,0,0,1,.54,3.56,11.5,11.5,0,0,1-.57,3.71m-9.34-.55a7.56,7.56,0,0,0,.4,1.88,1.76,1.76,0,0,0,.67.94,1.78,1.78,0,0,0,.95.26,1.86,1.86,0,0,0,.91-.22,1.42,1.42,0,0,0,.62-.77,6.28,6.28,0,0,0,.35-1.64,25.78,25.78,0,0,0,.12-2.8c0-1.29,0-2.34-.12-3.16a7.46,7.46,0,0,0-.39-1.91,1.94,1.94,0,0,0-.69-.94,1.83,1.83,0,0,0-1-.25,1.86,1.86,0,0,0-.89.2,1.57,1.57,0,0,0-.63.8,6.15,6.15,0,0,0-.35,1.67c-.07.73-.1,1.68-.1,2.86a28.52,28.52,0,0,0,.13,3.08" style="fill: #603812"/>
    <path d="M134.33,258.07l5.71-.85v1.61a20.26,20.26,0,0,1,2.47-1.05,5.88,5.88,0,0,1,1.89-.33,3.67,3.67,0,0,1,1.74.36,5.36,5.36,0,0,1,1.53,1.2,12.32,12.32,0,0,1,5.24-1.56,5.23,5.23,0,0,1,1.82.31,4.77,4.77,0,0,1,1.53.92,4.41,4.41,0,0,1,1.2,1.92,10.49,10.49,0,0,1,.33,2.89v11.24h-5.71V264.37a8.93,8.93,0,0,0-.1-1.52,1.83,1.83,0,0,0-.37-.88,1.35,1.35,0,0,0-.75-.42,7.81,7.81,0,0,0-1.22-.18,2.09,2.09,0,0,0-.42,0,3.74,3.74,0,0,0-.38.08,7,7,0,0,1,.09,1.17v12.13h-5.71v-10.3a11.09,11.09,0,0,0-.09-1.59,1.87,1.87,0,0,0-.34-.9,1.26,1.26,0,0,0-.7-.41,9,9,0,0,0-1.2-.16,1.83,1.83,0,0,0-.47,0l-.38.06v13.3h-5.71" style="fill: #603812"/>
    <path d="M169.9,251l5.71-.95v8.45l-.24.14h0c.51-.27,1-.49,1.34-.67a10.29,10.29,0,0,1,1.06-.43,7.59,7.59,0,0,1,.91-.23,5.29,5.29,0,0,1,.9-.07,4.56,4.56,0,0,1,2.4.63,6.06,6.06,0,0,1,1.84,1.7,8.85,8.85,0,0,1,1.2,2.55,12.22,12.22,0,0,1-.21,7,8.93,8.93,0,0,1-1.8,3.07,8.37,8.37,0,0,1-2.77,2,8.56,8.56,0,0,1-3.55.72,14,14,0,0,1-1.53-.08,14.57,14.57,0,0,1-1.65-.22l-2.62-.47-1-.17m8.56-3.54a6.84,6.84,0,0,0,1-4.06,7.26,7.26,0,0,0-.9-4,3.21,3.21,0,0,0-2.64-1.25h-.29v10.68h.2a3.13,3.13,0,0,0,2.65-1.35" style="fill: #603812"/>
    <path d="M202.85,269.56a8.2,8.2,0,0,1-1.62,2.89,7.35,7.35,0,0,1-2.53,1.87,8,8,0,0,1-3.34.68,8.44,8.44,0,0,1-3.27-.6,7.1,7.1,0,0,1-2.48-1.71A7.51,7.51,0,0,1,188,270a10.79,10.79,0,0,1-.55-3.52,11.54,11.54,0,0,1,.58-3.76,8.47,8.47,0,0,1,1.62-2.89A7,7,0,0,1,192.2,258a8.08,8.08,0,0,1,3.33-.67,8.8,8.8,0,0,1,3.31.59,6.8,6.8,0,0,1,2.48,1.71,7.84,7.84,0,0,1,1.56,2.69,11,11,0,0,1,.55,3.56,11.5,11.5,0,0,1-.58,3.71m-9.34-.55a8,8,0,0,0,.4,1.88,1.61,1.61,0,0,0,1.62,1.2,1.83,1.83,0,0,0,.91-.22,1.42,1.42,0,0,0,.62-.77,6.65,6.65,0,0,0,.36-1.64c.07-.7.11-1.63.11-2.8s0-2.34-.11-3.16a7.85,7.85,0,0,0-.4-1.91,1.94,1.94,0,0,0-.69-.94,1.82,1.82,0,0,0-1-.25,1.87,1.87,0,0,0-.9.2,1.51,1.51,0,0,0-.62.8,6.1,6.1,0,0,0-.36,1.67c-.06.73-.1,1.68-.1,2.86a28.52,28.52,0,0,0,.13,3.08" style="fill: #603812"/>
    <path d="M208.53,274.68l-3.41-17h5.56c.14.93.26,1.72.37,2.42s.23,1.42.34,2.23.23,1.56.34,2.26.23,1.49.37,2.39l2.11-9.33h4.37l1.82,9.66,1.83-9.63h3.85l-3.88,17H217l-1.59-7.63-1.74,7.63" style="fill: #603812"/>
    <path d="M228.22,270.61l.64.39c.61.29,1.14.51,1.58.67s.91.3,1.41.43a5.48,5.48,0,0,0,1.37.19,3.1,3.1,0,0,0,.81-.1,2.35,2.35,0,0,0,.7-.3,1.5,1.5,0,0,0,.49-.44.77.77,0,0,0,.15-.54,1.72,1.72,0,0,0-.05-.49,1,1,0,0,0-.25-.43,4.55,4.55,0,0,0-.61-.54c-.28-.21-.66-.48-1.15-.81l-1.91-1.3a11.63,11.63,0,0,1-1.45-1.1,6.35,6.35,0,0,1-1-1.1,4.21,4.21,0,0,1-.53-1.19,5.65,5.65,0,0,1-.15-1.41,5.18,5.18,0,0,1,.42-2.1,4.58,4.58,0,0,1,1.18-1.62,5.06,5.06,0,0,1,1.81-1,7.21,7.21,0,0,1,2.33-.36l.88,0c.29,0,.63,0,1,.08l1.28.2c.47.08,1,.19,1.66.32l1.06.23,0,2.95-.65-.26c-.58-.22-1.09-.39-1.51-.51s-.87-.23-1.35-.33a5.94,5.94,0,0,0-1.28-.17,2.08,2.08,0,0,0-1.18.34,1,1,0,0,0-.47.93,2.13,2.13,0,0,0,0,.46.73.73,0,0,0,.17.37,2.48,2.48,0,0,0,.46.39c.2.15.5.35.89.6v0l2,1.26a17.39,17.39,0,0,1,1.59,1.17,6.19,6.19,0,0,1,1.05,1.16,4.27,4.27,0,0,1,.57,1.25,5.57,5.57,0,0,1,.17,1.46,5.73,5.73,0,0,1-.45,2.28,5.08,5.08,0,0,1-1.27,1.78,5.8,5.8,0,0,1-1.93,1.14,7.36,7.36,0,0,1-2.45.39,14.71,14.71,0,0,1-2.55-.28c-1-.18-2.14-.43-3.3-.72l-.35-.09" style="fill: #603812"/>
    <polyline points="62.97 216.1 58.86 216.1 56.81 220.97 53.22 220.97 53.22 211.03 82.91 211.03 82.91 220.97 79.32 220.97 77.32 216.1 73.22 216.1 73.22 247.74 62.97 247.74" style="fill: #603812"/>
    <rect x="86.21" y="211.13" width="10.25" height="36.6" style="fill: #603812"/>
    <polyline points="140.21 211.13 140.21 247.74 130.56 247.74 130.56 222.87 123.69 247.63 116.62 247.63 109.8 222.72 109.8 247.74 103.59 247.74 103.59 211.13 116.88 211.13 122.26 230.77 127.64 211.13" style="fill: #603812"/>
    <path d="M148.19,211.13l13.07,0c1.27,0,2.38,0,3.34.08a16,16,0,0,1,2.53.3,8.95,8.95,0,0,1,3.72,1.67,7.86,7.86,0,0,1,2.49,3.08,9.34,9.34,0,0,1,.85,4,8.69,8.69,0,0,1-1.52,5.29,9.24,9.24,0,0,1-4.49,3.28,10.26,10.26,0,0,1,5.11,3.28,8.26,8.26,0,0,1,1.77,5.48,9.16,9.16,0,0,1-1.13,4.47,9.64,9.64,0,0,1-3.13,3.38,13.82,13.82,0,0,1-2,1.1,10.72,10.72,0,0,1-2.18.7,19.77,19.77,0,0,1-2.74.35c-1,.07-2.26.1-3.69.1l-12,.11m14.54-22.4c.73-.79,1.1-2.16,1.1-4.11s-.34-3.25-1-4a4.7,4.7,0,0,0-3.59-1.13h-.77v10.41h.47c1.81,0,3.08-.39,3.82-1.17m.36,16c.73-.84,1.11-2.29,1.15-4.38a5.88,5.88,0,0,0-1.18-4.08,4.92,4.92,0,0,0-3.75-1.26h-.87v11h.77c1.85,0,3.14-.42,3.88-1.26" style="fill: #603812"/>
    <polyline points="181.26 211.13 205.35 211.13 205.35 216.1 191.51 216.1 191.51 226.51 202.49 226.51 202.49 231.59 191.51 231.59 191.51 242.56 205.82 242.56 205.82 247.63 181.26 247.74" style="fill: #603812"/>
    <path d="M220.81,247.74H210.56V211.13h13c1.26,0,2.39,0,3.36.07a20.13,20.13,0,0,1,2.61.31,14.38,14.38,0,0,1,2.08.59,7.9,7.9,0,0,1,1.74,1h0a7.86,7.86,0,0,1,2.51,3.11,9.58,9.58,0,0,1,.88,4.17,8.86,8.86,0,0,1-1.67,5.62,9.62,9.62,0,0,1-4.94,3.3l10.7,18.46-11.53-.11-8.56-15m4.13-7.33c.73-.78,1.1-2.17,1.1-4.15s-.34-3.24-1-4a4.57,4.57,0,0,0-3.48-1.11h-.72v10.41h.36a5,5,0,0,0,3.77-1.18" style="fill: #603812"/>
  </g>
</svg>
