<svg xmlns="http://www.w3.org/2000/svg" width="300" height="300" viewBox="0 0 300 300">
  <g>
    <path d="M186.24,261.26c-3.46,0-7.33-4.35-14-13.76.55-1.33,4-6.72,5.48-6.72.26,0,.52.37.52,1,0,1-.35,1.59-.35,2.48a6.16,6.16,0,0,0,6,6.35h.31a6.75,6.75,0,0,0,7-6.48,6.43,6.43,0,0,0,0-.76,7.34,7.34,0,0,0-7.08-7.6,6.4,6.4,0,0,0-.76,0c-4.7,0-7.68,2.57-12.26,10.15l-11.48-15.52a12.61,12.61,0,0,0,7.67-10.87c0-7.5-6.35-10.32-12.52-10.32-8.11,0-16.33,5-16.33,13.93,0,6.26,3.37,10.67,6.18,14.46-7.22,3.89-15.7,10.87-15.7,19.76a13.89,13.89,0,0,0,13.68,13.76c9.43,0,14.82-4.67,19.32-10.13,4.13,5.28,8.37,10.13,15.7,10.13,8.28,0,14.71-8.28,16.67-15.35l-1.76-.61C191.43,258.17,189.93,261.26,186.24,261.26ZM158,211.87a7.63,7.63,0,0,1,7.5,7.67c0,4.35-3.52,7.76-7,9.53-4.35-6-7-9.9-7-12,.2-2.92,2.05-5.2,6.55-5.2Zm-3.7,51c-4.95,0-13.32-11.91-13.32-17.39,0-3.44,1.84-4.85,4.34-6.52l15.53,20.65a8.32,8.32,0,0,1-6.44,3.26Z" style="fill: #231f20"/>
    <path d="M244.5,182.15l1.2-9.87h-.92l-.41,2.5H228.54c3.11-3.67,16.68-5.63,16.68-16,0-7.8-6.11-10.54-13.29-10.54-5.86,0-9.86,3.54-9.86,8.32a4.47,4.47,0,0,0,4,4.9l.32,0a4,4,0,1,0,.76-7.94h0a6.57,6.57,0,0,0-2.41.37c0-2.87,3.07-4.48,5.67-4.48,4.35,0,5.53,3,5.53,7.79,0,11.15-8.31,16-13.89,25Z" style="fill: #231f20"/>
    <path d="M262.33,148.22c-6.53,0-12.68,4.54-12.68,17.39S257.09,183,262.33,183,275,178.46,275,165.61,268.8,148.22,262.33,148.22Zm3.3,29c0,3-.76,4.71-3.3,4.71S259,180.17,259,177.2V153.85c0-3,.76-4.72,3.31-4.72s3.3,1.74,3.3,4.72Z" style="fill: #231f20"/>
    <path d="M246.39,223.67l1.2-9.87h-.92l-.41,2.5H230.43c3.11-3.69,16.64-5.63,16.64-16,0-7.8-6.11-10.54-13.29-10.54-5.87,0-9.87,3.54-9.87,8.33a4.48,4.48,0,0,0,4,4.89l.33,0a4,4,0,1,0,.65-8,6.57,6.57,0,0,0-2.41.37c0-2.89,3.07-4.48,5.67-4.48,4.35,0,5.53,3,5.53,7.79,0,11.15-8.31,16-13.9,25Z" style="fill: #231f20"/>
    <path d="M267,190.41h-5.35a46.75,46.75,0,0,1-12,8.55v1.17c1.93-.69,6.52-3.3,7.45-3.3.52,0,.59.39.59.8v25.15h-3.46v.89h16.26v-.89H267Z" style="fill: #231f20"/>
    <path d="M35.63,155.46v25.13H32.17v.91H48.43v-.91H45V148.22H39.63a46.21,46.21,0,0,1-12,8.56v1.29c1.93-.72,6.52-3.31,7.45-3.31C35.57,154.65,35.63,155,35.63,155.46Z" style="fill: #231f20"/>
    <path d="M52.07,164.85c0,12.76,7.41,17.39,12.67,17.39s12.65-4.54,12.65-17.39-6.19-17.39-12.65-17.39S52.07,152.11,52.07,164.85ZM68,153.2v23.32c0,3-.76,4.74-3.3,4.74s-3.33-1.76-3.33-4.74V153.2c0-3,.76-4.74,3.33-4.74S68,150.22,68,153.2Z" style="fill: #231f20"/>
    <path d="M37.67,223.67c5.24,0,12.68-4.54,12.68-17.39s-6.2-17.39-12.68-17.39S25,193.41,25,206.28,32.43,223.67,37.67,223.67Zm-3.32-29c0-3,.76-4.72,3.3-4.72S41,191.72,41,194.7V218c0,3-.76,4.74-3.31,4.74s-3.3-1.67-3.3-4.74Z" style="fill: #231f20"/>
    <path d="M75.52,215.65H59.7c3.13-3.69,16.63-5.63,16.63-16,0-7.8-6.09-10.54-13.29-10.54-5.84,0-9.87,3.54-9.87,8.3a4.48,4.48,0,0,0,4,4.89,1.83,1.83,0,0,0,.33,0,4,4,0,1,0,.74-7.93h0a6.48,6.48,0,0,0-2.39.39c0-2.89,3.06-4.5,5.65-4.5,4.46,0,5.55,3,5.55,7.81,0,11.15-8.33,16-13.9,25H75.65l1.18-9.89h-.9Z" style="fill: #231f20"/>
    <path d="M41.63,124.8a4.76,4.76,0,0,0,1.74.33,4.1,4.1,0,0,0,1.85-.41l.89-.5-.46-.94S40.37,112.09,40.46,88a154.11,154.11,0,0,1,4.91-38.35A61.28,61.28,0,0,0,70.8,79c12.59,7.15,23.4,10,44.37,4.35l1.79-.5-1.35-1.35c-.41-.39-8.59-7.65-18.44-16.39l-8-7A123.17,123.17,0,0,0,39.41,29.35c-1.41-.41-2.28-.65-3.08-.18s-1.07,1.46-1.46,3.35c-10.87,46.18-2.33,75.87.54,83.87C37.07,121.11,39.15,123.87,41.63,124.8Z" style="fill: #231f20"/>
    <path d="M230.24,79a61.42,61.42,0,0,0,25.43-29.33A154.1,154.1,0,0,1,260.57,88c0,24.07-5.14,35.15-5.18,35.26l-.46.94.9.5a4,4,0,0,0,1.84.41,4.68,4.68,0,0,0,1.74-.33c2.48-.93,4.57-3.78,6.22-8.41,2.87-8,11.33-37.69.54-83.85-.39-1.91-.6-2.84-1.45-3.37s-1.68-.23-3.11.18a123.17,123.17,0,0,0-49.78,28.72l-8.11,7.21c-9.79,8.7-17.92,15.89-18.33,16.29L184,82.91l1.85.48C206.85,89,217.65,86.15,230.24,79Z" style="fill: #231f20"/>
    <path d="M100.11,158.07,88.7,228l62.5-33.5,63,32.61-12.5-69.91,50.41-50-70.32-9.57-31.9-63.37-30.8,63.87L48.91,108.89Zm22.43-46.94h55.94v18.09H149.57v9.28h27v18.28h-27v22.89h-27Z" style="fill: #231f20"/>
    <polygon points="208.96 254.15 215.2 254.15 215.2 250.11 208.96 250.11 208.96 242.78 215.54 242.78 215.54 238.72 204.56 238.72 204.56 267.13 215.59 267.13 216.15 263.09 208.96 263.09 208.96 254.15" style="fill: #231f20"/>
    <path d="M228.65,250.37c-.43,3.87-1.11,7.93-1.35,11h0c-.26-3.28-.87-7.28-1.37-11.11l-1.5-11.56h-4.82l5,28.41H230l4.85-28.41H230Z" style="fill: #231f20"/>
    <path d="M240.35,238.72l-4.57,28.41h4.35l1-7.61h4.35l1.13,7.61h4.56l-4.74-28.41Zm1.43,16.78c.57-4.2,1.42-10.28,1.55-12.63h.15c.32,3.22,1,7.8,1.61,12.63Z" style="fill: #231f20"/>
    <path d="M265.07,246.09c0,4.67,0,8.69.21,12.17h0c-.3-1.52-3.69-15.54-4.82-19.56h-5.09v28.41h4.09v-7.78c0-5.11,0-9-.2-12.39h0c.28,1.19,4.07,16.78,5,20.17h4.91V238.72h-4Z" style="fill: #231f20"/>
    <path d="M33.78,251.54c-2.5-1.84-2.89-2.82-2.89-4.82s.39-3.13,1.81-3.13,1.78,1.19,1.78,3.17v1.41h4.35v-1.52c0-3.08-.81-6.82-6-6.82s-6.26,3.78-6.26,7.52c0,4.19,1.63,5.74,4.68,8.15s3.71,3.35,3.71,6.52c0,1.85-.43,3.46-2.17,3.46s-2.31-1.18-2.31-3.28v-1.76H26.09v1.69c0,3.74,1.28,7.09,6.52,7.09s6.72-3.83,6.72-7.85C39.33,256.54,38,254.72,33.78,251.54Z" style="fill: #231f20"/>
    <path d="M49.15,253.33h0c-.43-3.09-1.74-8.39-2.89-13.05H41.37l5.3,17.39a3,3,0,0,1,.16,1v10.07h4.34v-9.57a4.7,4.7,0,0,1,0-1.06l5.42-17.76H52C51,244.85,49.74,250,49.15,253.33Z" style="fill: #231f20"/>
    <path d="M66,240.33H59.93v28.41H66c6.74,0,7.5-4.78,7.5-9.13V248.74C73.48,243.46,72,240.33,66,240.33Zm3.11,19.91c0,2.93-.43,4.78-3.3,4.78H64.41V244.11h1.37c2.89,0,3.35,1.67,3.35,4.35Z" style="fill: #231f20"/>
    <path d="M86.7,247.7c0,4.67,0,8.69.21,12.17h0c-.3-1.52-3.69-15.54-4.82-19.57H77v28.42H81v-7.78c0-5.11,0-9-.17-12.4h0c.3,1.2,4.06,16.79,5,20.18h4.87V240.33h-4Z" style="fill: #231f20"/>
    <polygon points="98.61 255.76 104.85 255.76 104.85 251.74 98.61 251.74 98.61 244.39 105.2 244.39 105.2 240.33 94.22 240.33 94.22 268.74 105.24 268.74 105.8 264.72 98.61 264.72 98.61 255.76" style="fill: #231f20"/>
    <path d="M115.7,253.33h0c-.44-3.09-1.74-8.39-2.87-13.05h-4.9l5.31,17.39a3.28,3.28,0,0,1,.15,1v10.07h4.35v-9.57a6.25,6.25,0,0,1,0-1.06l5.41-17.76h-4.54C117.57,244.85,116.28,250,115.7,253.33Z" style="fill: #231f20"/>
  </g>
</svg>
