<svg xmlns="http://www.w3.org/2000/svg" width="300" height="300" viewBox="0 0 300 300">
  <g>
    <path d="M254.41,101c-2.09,0-3.63,1.06-3.63,5.35v16.58c0,3.61,1.14,5.24,3.67,5.24,2.18,0,3.58-1.1,3.58-5.34V106.37C258,102.25,256.47,101,254.41,101Z" style="fill: none"/>
    <path d="M231.12,129.65V130h12l.36-2.09h-9.8c.24-2.78,2.23-6.25,5.55-11.17,2.37-3.51,3.52-5.25,3.52-10,0-4.34-.94-8-5.52-8-4.75,0-5.69,3.53-5.69,6.78V107h2.22v-1.31c0-2.85.89-4.82,3.35-4.82s3.23,1.9,3.23,6c0,3.46-.56,5.1-3,8.83C233.3,121.71,231.13,125.44,231.12,129.65Z" style="fill: #231f20"/>
    <path d="M260.4,122.86v-16.5c0-6.06-2.93-7.6-5.89-7.6s-6.08,1.55-6.08,7.7v16.48c0,5.68,2.6,7.47,5.91,7.47C258,130.41,260.4,128.53,260.4,122.86Zm-2.37,0c0,4.24-1.4,5.34-3.58,5.34-2.53,0-3.67-1.63-3.67-5.24V106.35c0-4.29,1.54-5.35,3.63-5.35s3.62,1.25,3.62,5.37Z" style="fill: #231f20"/>
    <path d="M231.12,167.19v.37h12l.36-2.08h-9.8c.24-2.79,2.23-6.25,5.55-11.18,2.37-3.51,3.52-5.25,3.52-10,0-4.35-.94-8-5.52-8-4.75,0-5.69,3.53-5.69,6.78v1.41h2.22v-1.31c0-2.85.89-4.81,3.35-4.81s3.23,1.89,3.23,6c0,3.46-.56,5.11-3,8.83C233.3,159.25,231.13,163,231.12,167.19Z" style="fill: #231f20"/>
    <path d="M257.51,167.56V136.45h-1.66a12.35,12.35,0,0,1-4.54,2.62v2a14,14,0,0,0,3.87-1.5v28Z" style="fill: #231f20"/>
    <path d="M81.85,98.57C78.67,97,64.68,93.22,55.3,103.91c-8,9.09-9.12,26,10,41.74-7.42-12.79-9.53-24.78-7.2-28.76,5.57-9.45,7.21,1.53,17.59-5,18.54-11.75,16.46,8.63,16.46,8.63L97.39,127c.28-3.66,1.33-5.73,0-9.6C93.72,106.25,85,100.12,81.85,98.57Z" style="fill: #231f20"/>
    <path d="M80.09,123.77c3.58,1.37,10.46-2.19,10.46-2.19a43.16,43.16,0,0,1-3.67-6.32c-1.87-3.9-8.2-3.59-10.06.39C74.52,120.59,77.94,123,80.09,123.77Z" style="fill: #231f20"/>
    <path d="M98.36,137.43c-.28.16-2.31,2.41-2.31,2.41l.32.59c1.42.15,3.66.41,6.27.83.84.14,1.83.4,2.79.64,1.26.33,3.88,1,4.28.62,1.56-1.71,3.26-2.12,5.05-1.24-2.21-9.62-12.22-14.62-15.57-16l-.34,1.27,1.89,3.71s-1.8.72-2.27.52l1.18,2.84-3.3,1S98.56,137.31,98.36,137.43Z" style="fill: #231f20"/>
    <path d="M100.43,88h3.14a39.75,39.75,0,0,0-1.7-4.55c-2-4.6-8.15-7.75-8.15-7.75a21.75,21.75,0,0,1,2.84,6.66c.54,3.13-.45,3.78-.45,3.78S91,75.79,85.21,69.91s-16-7.37-16-7.37,5.53,6.29,6.74,13.3a10.7,10.7,0,0,0,2.65,5S74.4,78.56,71,72.55c-4.93-8.66-7.45-5.31-12.18-7.46-5-2.27-6.09-4.15-6.09-4.15s-1.31,5.87.47,16.94a58.24,58.24,0,0,0,1.65,7.37,7.71,7.71,0,0,1-4.54-3.56,17.59,17.59,0,0,1-1.5-6.06S36.23,91.7,47.57,103.06l.57.14c.72-.84,1.49-1.68,2.36-2.53l.38-.43a35.57,35.57,0,0,1,22-7.86,24.15,24.15,0,0,1,8,1.14C91.6,97,99.25,105.81,100.75,115.24l.3.29a36.2,36.2,0,0,0,3.14-25.26h-3.76Z" style="fill: #231f20"/>
    <path d="M103,153.1a15.5,15.5,0,0,0-5.19-8.85l-3.92-3.43s-11.81,5-17.54,3.08c-10.06-3.43-9.76-17.9-9.76-17.9S61,138.69,69.7,146a10.39,10.39,0,0,0,5.16,2.33,18.48,18.48,0,0,0,.84,12.14A52.7,52.7,0,0,0,79.52,168c2.37,3.68,10.26,8.75,16.52,6s2.86-7.21,5.19-11C102.19,161.43,103.67,156.13,103,153.1Z" style="fill: #231f20"/>
    <polygon points="117.66 99.56 117.66 167.54 122.64 167.54 122.64 133.25 138.77 133.25 138.77 167.54 143.76 167.54 143.76 99.56 138.77 99.56 138.77 128.67 122.64 128.67 122.64 99.56 117.66 99.56" style="fill: #231f20"/>
    <polygon points="161.31 133.33 176.76 133.33 176.76 128.75 161.31 128.75 161.31 104.16 177.66 104.16 177.66 99.56 156.31 99.56 156.31 167.54 177.93 167.54 178.67 162.95 161.31 162.95 161.31 133.33" style="fill: #231f20"/>
    <path d="M195.21,99.55H189v68h4.86V139.35c0-12.3-.33-24.3-.75-32.46h.1c1.71,7.18,11.93,44.69,16.57,60.65h6v-68H211v28.36c0,11,.17,20.59.51,30.27h-.19C209.91,151.28,199.53,114.2,195.21,99.55Z" style="fill: #231f20"/>
    <path d="M133.78,190.1V176.68H99.12l0-.1s-6.33,3.24-12.74.67S78,170.52,78,170.52a53.5,53.5,0,0,0,1.07,7.13c.76,3.21,4.17,6.1,4.17,6.1S72,179.57,67.19,169.88A33.61,33.61,0,0,1,63.61,151s-3,2.59-2.47,7.89a61.4,61.4,0,0,0,1.85,10s-7-7.82-8.13-16.27A18.58,18.58,0,0,1,57.08,141a9.34,9.34,0,0,0-5,5.49,15.66,15.66,0,0,0,.63,11.86s-16.39-16.21-2.81-31.77c0,0-5.11,1.34-7.83,9-1.31,3.68-.06,8.79-.06,8.79s-12.57-15.65,4.38-32.19l.37-.42a58,58,0,0,0-15.43,19.13,56.47,56.47,0,0,0-6.13,20c-1.05,7.62,1.84,20,1.84,20L33.82,155s-3.7,15.28-1.53,28.94A102.78,102.78,0,0,0,39.91,209s-.23-8.49,4.82-15.38a34.83,34.83,0,0,0,5.94-15.18s4.28,5.53,3.68,15.12c-.55,8.75-3.28,9.61-4.53,17.87-1.34,8.9-.88,14.9-.39,18,5.53-12.16,14.18-30,19.54-35,6-5.67,19.77-7.87,25.85-5.44a30.35,30.35,0,0,1,4.23,2.08,19,19,0,0,1,3.78,2.89c3.53,3.56,4.07,7.53,4.54,11.11a10.57,10.57,0,0,1-2.2,7.63,5.56,5.56,0,0,1-1.6,1.18,8.26,8.26,0,0,1-1.83.7,9.08,9.08,0,0,0,1.41-2.41,8.84,8.84,0,0,0,.68-3.3,9,9,0,0,0-1.81-5.54,9.22,9.22,0,0,0-3-2.58,9.79,9.79,0,0,0-.92-.45,3.42,3.42,0,0,0-.55-.21,5.88,5.88,0,0,0-2.9-.49c-11.11,2-10.43,14.6-9.4,19.51,1,4.63,6.53,8.49,13.77,11.61,1.11.48,2.27.94,3.45,1.39a134.27,134.27,0,0,0,14.32,4.38V214h15.69V200.52H116.82V190.1Z" style="fill: #231f20"/>
    <polygon points="157.72 213.31 174.5 213.31 174.5 199.8 157.72 199.8 157.72 190.19 175.22 190.19 175.22 176.68 140.22 176.68 140.22 237.79 174.95 237.79 176.94 224.37 157.72 224.37 157.72 213.31" style="fill: #231f20"/>
    <path d="M205.87,198.62c-5.9-3.45-6.44-5.08-6.44-7.53s.64-3.44,2.18-3.44c2,0,2.54,1.72,2.54,7.16H221.1c0-11.7-5.26-19.49-19.58-19.49-13.6,0-19.77,7.16-19.77,18.22,0,8.71,3.9,13.7,14.42,20,6.43,3.81,8,5.71,8,9.07,0,2.54-.55,4.17-2.63,4.17s-2.82-1.81-2.82-7.25H181.11c.18,12.51,5.08,19.58,20.68,19.58,14.51,0,20.13-7.89,20.13-18.95C221.92,210.23,217.75,205.51,205.87,198.62Z" style="fill: #231f20"/>
    <polygon points="224.64 190.19 235.07 190.19 235.07 237.79 252.94 237.79 252.94 190.19 263.18 190.19 263.18 176.68 224.64 176.68 224.64 190.19" style="fill: #231f20"/>
    <path d="M101.74,214.58a8.26,8.26,0,0,0,1.83-.7l-.42-1.71A9.08,9.08,0,0,1,101.74,214.58Z" style="fill: #fff"/>
    <path d="M103.57,88c.24.78.44,1.55.62,2.32H272.68V235.39h-9.33v2.32H275V88Z" style="fill: #231f20"/>
    <path d="M100.43,88v2.32h3.76c-.18-.77-.38-1.54-.62-2.32Z" style="fill: #231f20"/>
  </g>
</svg>
