<svg xmlns="http://www.w3.org/2000/svg" width="300" height="300" viewBox="0 0 300 300">
  <g>
    <path d="M131.28,151.09c0,2.44,0,10,7.62,10,2.74,0,5.48-1,6.52-5.18h10a12.5,12.5,0,0,1-3.56,8.14c-2.73,2.89-7.62,4.37-13.09,4.37-3.18,0-9.25-.6-13.18-4.66-3.4-3.56-4.81-8.59-4.81-14.58s1.48-13.32,7.77-17.69a18.78,18.78,0,0,1,10.51-3.11c5.33,0,11.69,2.07,15.1,9,2.51,5.11,2.37,10.58,2.22,13.69H131.28m13.91-6.88c0-1.7-.14-8.36-6.51-8.36-4.81,0-6.81,4-7,8.36Z" style="fill: #0071ce"/>
    <polyline points="168.46 129.63 176.89 155.01 185.47 129.63 196.06 129.63 182.59 167 170.45 167 156.76 129.63 168.46 129.63" style="fill: #0071ce"/>
    <path d="M207.52,151.09c0,2.44,0,10,7.63,10,2.73,0,5.47-1,6.51-5.18h10A12.53,12.53,0,0,1,228.1,164c-2.74,2.89-7.63,4.37-13.1,4.37-3.18,0-9.25-.6-13.18-4.66-3.4-3.56-4.81-8.59-4.81-14.58s1.48-13.32,7.78-17.69a18.73,18.73,0,0,1,10.5-3.11c5.33,0,11.7,2.07,15.1,9,2.51,5.11,2.37,10.58,2.22,13.69H207.52m13.91-6.88c0-1.7-.14-8.36-6.51-8.36-4.81,0-6.81,4-7,8.36Z" style="fill: #0071ce"/>
    <path d="M263.62,113.57h11v47.36c0,2.22.15,4.66.3,6.07h-11.1l-.29-5.4a10.19,10.19,0,0,1-3.78,4.22,13.11,13.11,0,0,1-7.25,1.92c-10,0-15.91-6.88-15.91-18.57,0-12.36,6.73-20.06,16.5-20.06,6.74,0,9.55,3.78,10.51,5.11V113.57m-8.36,47.07a7.9,7.9,0,0,0,6.95-4.22,19.9,19.9,0,0,0,1.78-8.81c0-7.32-3.18-11.32-8.14-11.32-7.33,0-8.14,8.81-8.14,12.58C247.71,155.09,249.78,160.64,255.26,160.64Z" style="fill: #0071ce"/>
    <polyline points="25 113.57 275 113.57 275 186.43 25 186.43" style="fill: none"/>
    <path d="M124.17,186.43V173.06h11.26c1.95,0,2.93.86,2.93,2.58v3c0,1.7-1,2.55-2.93,2.55h-8.74v5.24h-2.52M134.32,175h-7.63v4.17h7.63c1,0,1.51-.42,1.51-1.25v-1.67C135.83,175.46,135.33,175,134.32,175Z" style="fill: #898a8d"/>
    <path d="M140.56,186.43l7.73-13.37h2.3l7.91,13.37h-2.74L154,183.31h-9.24l-1.71,3.12h-2.52m5.3-5.05H153L149.39,175Z" style="fill: #898a8d"/>
    <polyline points="165.42 186.43 165.42 180.59 158.45 173.06 161.5 173.06 166.84 178.86 171.91 173.06 174.88 173.06 167.94 180.59 167.94 186.43 165.42 186.43" style="fill: #898a8d"/>
    <path d="M181.47,175.55l.06,1.86v9h-2.08V173.06h2.08l6.66,8.67,6.12-8.67h2.33v13.37h-2.33v-9a11.12,11.12,0,0,1,.15-1.86,7,7,0,0,1-.88,1.86l-5.14,6.91h-.66l-5.33-6.85a6,6,0,0,1-1-1.92" style="fill: #898a8d"/>
    <polyline points="202.43 186.43 202.43 173.06 215.9 173.06 215.9 175.04 204.96 175.04 204.96 178.48 211.55 178.48 211.55 180.47 204.96 180.47 204.96 184.47 216.02 184.47 216.02 186.43 202.43 186.43" style="fill: #898a8d"/>
    <path d="M223.21,175.74a14.58,14.58,0,0,1,.19,2.4v8.29h-2.33V173.06H223l9.81,8.73a10.3,10.3,0,0,1,1.6,1.83,14.41,14.41,0,0,1-.22-2.49v-8.07h2.34v13.37h-1.74l-10-8.86a7.72,7.72,0,0,1-1.58-1.83" style="fill: #898a8d"/>
    <polyline points="249.91 175.04 249.91 186.43 247.38 186.43 247.38 175.04 241.08 175.04 241.08 173.06 256.25 173.06 256.25 175.04 249.91 175.04" style="fill: #898a8d"/>
    <path d="M272.54,175h-9.36v3.44h8.57a3.67,3.67,0,0,1,2.57.67,3.49,3.49,0,0,1,.68,2.5v1.61a3.49,3.49,0,0,1-.68,2.5,3.67,3.67,0,0,1-2.57.67h-8.13a3.88,3.88,0,0,1-2.61-.65,3.45,3.45,0,0,1-.67-2.47v-.38l2.3-.48v2h10.09v-3.78h-8.61a3.73,3.73,0,0,1-2.57-.66,3.53,3.53,0,0,1-.68-2.5v-1.26a3.54,3.54,0,0,1,.68-2.52,3.73,3.73,0,0,1,2.57-.66h7.44a4,4,0,0,1,2.54.63,2.93,2.93,0,0,1,.74,2.3v.32l-2.3.5V175" style="fill: #898a8d"/>
    <polyline points="25 113.57 275 113.57 275 186.43 25 186.43" style="fill: none"/>
    <polyline points="25 133.14 44.15 133.14 44.15 113.99 25 113.99" style="fill: #0071ce"/>
    <rect x="51.65" y="113.99" width="19.15" height="19.15" style="fill: #0071ce"/>
    <rect x="78.29" y="113.99" width="19.15" height="19.15" style="fill: #0071ce"/>
    <polyline points="25 159.78 44.15 159.78 44.15 140.63 25 140.63" style="fill: #0071ce"/>
    <polyline points="25 186.43 44.15 186.43 44.15 167.28 25 167.28" style="fill: #0071ce"/>
    <polyline points="25 113.57 275 113.57 275 186.43 25 186.43" style="fill: none"/>
    <rect x="51.65" y="140.63" width="19.15" height="19.15" style="fill: #898a8d"/>
    <rect x="51.65" y="167.28" width="19.15" height="19.15" style="fill: #0071ce"/>
    <rect x="78.29" y="140.63" width="19.15" height="19.15" style="fill: #0071ce"/>
    <rect x="78.29" y="167.28" width="19.15" height="19.15" style="fill: #0071ce"/>
  </g>
</svg>
