<svg xmlns="http://www.w3.org/2000/svg" width="300" height="300" viewBox="0 0 300 300">
  <g>
    <path d="M157.33,199.79l7.85-.55v14.87c2.22-2.22,5.31-3.33,9.13-3.33,9.51,0,16.61,7,16.61,16.29A16,16,0,0,1,186,238.8a17.13,17.13,0,0,1-11.91,4.69c-9.57,0-16.8-6.91-16.8-16.72Zm16.61,36.54a9.14,9.14,0,0,0,8.95-9.26,8.78,8.78,0,0,0-8.95-9.19c-5.18,0-8.95,3.76-8.95,9.19a8.92,8.92,0,0,0,8.95,9.26" style="fill: #cddb00"/>
    <path d="M218.78,242.81l-7.28.5v-4.63c-2.4,3.27-5.37,4.87-9,4.87-6.11,0-9.63-4-9.63-11.6V211.4l7.9-.5v18.7c0,4.69.87,7,4.32,7,3.77,0,5.8-2.6,5.8-7.65V211.4l7.9-.5Z" style="fill: #cddb00"/>
    <path d="M223.72,243.31l7.9-.5V228.62c0-7.16,2.59-10.31,8.82-10.31l2.78-8.21h-.93c-5.37,0-9.07,2-11.35,6.23V210.9l-7.22.5Z" style="fill: #cddb00"/>
    <path d="M246.06,244.11a12.57,12.57,0,0,0,9.87,4.63c4.87,0,7.9-2.66,7.9-6.24s-3.46-6.66-8.83-6.66a14.77,14.77,0,0,0-7.52,2.28l1.78-4.69c-4.87-2-7.4-5.49-7.4-10.24,0-7.35,5.8-12.47,15.3-12.47,2.66,0,4.88.24,6.79.24a20.75,20.75,0,0,0,5.86-.8l5.19-1.48-1.85,7.22-4.57.31a9.41,9.41,0,0,1,2.9,7c0,3.95-2,6.91-6.23,9.5,4.56,2.65,6.78,6.05,6.78,10.49,0,6.79-6.35,12.59-15.55,12.59-6.54,0-11.72-2.28-15.36-6.79Zm10.61-14.32c4.19,0,7-2.78,7-6.54s-2.9-6.42-7-6.42-7,2.65-7,6.42c0,3.94,2.72,6.54,7,6.54" style="fill: #cddb00"/>
    <path d="M205.21,68.89l-.41-1.09L153.19,44.7l-1.06-.47-1.08.41L99.29,64.39l-1.08.41-.47,1L75.11,116.4l-.47,1.06L94.79,170.3l.41,1.08,51.61,23.11,1.06.47,1.08-.41,51.76-19.75,1.08-.41.47-1.06,22.63-50.55.48-1.06Zm-9.86,98.69-47.21,18L102,164.94,84,117.73l20.65-46.12,47.21-18L198,74.25l18,47.21Z" style="fill: #cddb00"/>
    <path d="M160.27,172.88h0c-1.65.32-3.34.56-5.05.73h-.06c-1.7.17-3.42.25-5.16.25a54.27,54.27,0,0,1-54.27-54.27c0-1.77.09-3.53.26-5.26h0c9.24-8.86,27.59-14.86,55.85-16.23-6.87,1.48-18.08,4.39-27.3,9.16-14.76,10-2,20.74,25,26.11C172.4,137.92,163.51,164.8,160.27,172.88Zm37.2-27,.06-.1c.4-.73.78-1.47,1.15-2.21l.09-.17c.35-.72.68-1.45,1-2.19l.12-.25c.3-.71.59-1.42.86-2.15.05-.12.1-.23.14-.35.26-.7.49-1.4.72-2.1,0-.16.11-.31.16-.46.21-.68.4-1.36.59-2,0-.19.11-.37.16-.56.17-.66.32-1.32.47-2,0-.23.11-.46.15-.69.14-.64.25-1.29.36-1.93,0-.26.09-.51.13-.77.1-.64.18-1.29.25-1.94,0-.27.08-.53.11-.81.07-.68.11-1.37.15-2.06,0-.24.05-.48.06-.72.05-.93.07-1.87.07-2.82s0-2-.09-3c0-.2,0-.39,0-.58-.06-.85-.13-1.69-.22-2.52l-.06-.42c-.11-.91-.24-1.81-.39-2.71l0-.17c-.18-1-.37-2-.6-2.91-8.19-6.25-21.94-9.75-42.64-9.41-1.74,0-3.44.07-5.11.13-3.88,1.26-10,3.14-12.38,3.94-5.33,1.8-21.07,6.65-13.78,15,6.07,7,38.38,1.52,51,17.2,7.65,9.48,8.55,18.31,7.95,24.32h0a54.14,54.14,0,0,0,8.24-10.27l0,0C196.63,147.38,197.06,146.64,197.47,145.9Z" style="fill: #cddb00"/>
  </g>
  <g>
    <path d="M25,199.79l7.84-.55v14.87c2.22-2.22,5.31-3.33,9.13-3.33,9.51,0,16.6,7,16.6,16.29A16,16,0,0,1,53.7,238.8a17.15,17.15,0,0,1-11.91,4.69c-9.57,0-16.79-6.91-16.79-16.72Zm16.6,36.54a9.14,9.14,0,0,0,8.95-9.26,8.79,8.79,0,0,0-8.95-9.19c-5.18,0-9,3.76-9,9.19a8.92,8.92,0,0,0,9,9.26" style="fill: #e07c00"/>
    <polygon points="61.86 243.31 69.82 242.81 69.82 210.9 61.86 211.4 61.86 243.31" style="fill: #e07c00"/>
    <polygon points="99.02 238.63 89.66 226.15 97.11 214.54 89.89 211.51 82.26 223.63 82.26 199.24 74.42 199.73 74.42 243.31 82.26 242.81 82.26 229.08 96.85 248.69 99.02 238.63" style="fill: #e07c00"/>
    <path d="M115,243.49a16.76,16.76,0,0,1-12-4.69,16,16,0,0,1-5-11.73,15.74,15.74,0,0,1,5-11.72,16.18,16.18,0,0,1,12-4.69c6.54,0,11.91,3.27,15.31,9.44l-21.91,13.58a9.83,9.83,0,0,0,7,2.65c3,0,6.17-1.29,9.88-3.64l3.14,6.6a23.76,23.76,0,0,1-13.39,4.2m5.06-24.07a6.67,6.67,0,0,0-5.18-2.1c-5.12,0-9.13,3.89-9.13,9.45a11.09,11.09,0,0,0,.06,1.41Z" style="fill: #e07c00"/>
    <path d="M130.9,238.68a16.77,16.77,0,0,0,12.16,5.06c7.65,0,12.4-4.32,12.4-10.43,0-5.13-2.84-7.47-8.76-9.26-4.44-1.3-6.54-2.1-6.54-4.26,0-1.79,1.42-2.9,3.64-2.9,2,0,3.88,1,5.8,3.09l5.31-4.26c-3.46-3.52-7.16-5.19-11.42-5.19-7,0-11.6,4.14-11.6,9.82,0,4.81,2.78,7.52,8.64,9.5,4.2,1.42,6.6,1.48,6.6,4,0,2-1.66,3.21-4.5,3.21a9.19,9.19,0,0,1-6.91-3.27Z" style="fill: #e07c00"/>
    <path d="M151.86,53.6l-47.21,18L84,117.73l18,47.21,46.12,20.65,47.21-18L216,121.46,198,74.25Zm36,104.81h0c-.93.9-1.89,1.78-2.89,2.62h0c-1,.84-2,1.65-3.07,2.42h0q-1.58,1.15-3.24,2.19h0c-1.1.7-2.24,1.35-3.4,2h0a53.44,53.44,0,0,1-15,5.27h0c-1.65.32-3.34.57-5.05.73h-.06c-1.7.16-3.42.25-5.16.25a54.27,54.27,0,0,1-54.27-54.27c0-1.77.09-3.53.26-5.26h0c.16-1.67.4-3.31.71-4.93a2,2,0,0,1,0-.24c.31-1.57.68-3.11,1.12-4.62,0-.12.07-.24.1-.37.44-1.48.94-2.93,1.5-4.36.06-.14.11-.28.17-.41.56-1.42,1.19-2.8,1.86-4.15l.21-.39q1-2,2.23-4c.07-.11.14-.22.22-.33.82-1.3,1.68-2.56,2.61-3.77l.16-.21c1-1.25,2-2.46,3-3.62l0,0q1.65-1.8,3.45-3.45h0c1.15-1.05,2.36-2.05,3.59-3l.27-.2Q119.06,75,121,73.76l.45-.29c1.23-.77,2.51-1.48,3.81-2.15l.56-.29c1.3-.65,2.62-1.24,4-1.78l.62-.25c1.36-.53,2.74-1,4.15-1.42l.63-.18q2.15-.62,4.35-1.05l.55-.1c1.53-.28,3.06-.51,4.63-.67l.36,0c1.64-.15,3.29-.24,5-.24,1.46,0,2.91.08,4.34.19l.69,0c1.36.13,2.71.31,4.05.53l.75.14c1.35.24,2.68.53,4,.87l.4.12c1.3.35,2.59.75,3.85,1.2l.33.11c1.29.47,2.56,1,3.8,1.55l.57.25c1.23.57,2.43,1.18,3.61,1.84l.4.23a54.72,54.72,0,0,1,7,4.77l.21.17c1.1.88,2.16,1.81,3.18,2.78l.23.21a54.43,54.43,0,0,1,8.37,10.2l0,0a54.13,54.13,0,0,1,7.58,19.57l0,.17c.15.9.28,1.8.39,2.71l.06.42c.09.83.16,1.67.22,2.52,0,.19,0,.38,0,.58.06,1,.09,2,.09,3s0,1.89-.07,2.82c0,.24,0,.48-.06.72,0,.69-.08,1.38-.15,2.06,0,.28-.08.54-.11.81-.07.65-.15,1.3-.25,1.94,0,.26-.09.51-.13.77-.11.64-.22,1.29-.36,1.93,0,.23-.1.46-.15.69-.15.66-.3,1.32-.47,2-.05.19-.11.37-.16.56-.19.69-.38,1.37-.59,2-.05.15-.11.3-.16.46-.23.7-.46,1.4-.72,2.1,0,.12-.09.23-.14.35-.27.73-.56,1.44-.86,2.15l-.12.25c-.32.74-.65,1.47-1,2.19l-.09.17c-.37.74-.75,1.48-1.15,2.21l-.06.1c-.41.74-.84,1.48-1.29,2.2l0,0A54.14,54.14,0,0,1,187.91,158.41Z" style="fill: #e07c00"/>
  </g>
</svg>
