<svg id="Layer_1" data-name="Layer 1" xmlns="http://www.w3.org/2000/svg" viewBox="0 0 200 66.16"><defs><style>.cls-1{fill:#21a8d1;}.cls-2{fill:#105776;}</style></defs><title>laralatham-logo</title><polygon class="cls-1" points="99.39 0 80.55 18.68 84.23 22.2 94.18 12.25 99.69 6.74 109.34 16.23 112.4 13.17 99.39 0"/><path class="cls-2" d="M88.45,25.91l3.21-3.22s6.43,5.36,12.56,3.83c6.28-1.69,12.4-9.8,12.4-9.8l3.68,3.67L101.62,39.08Z" transform="translate(-1 -0.33)"/><polygon class="cls-1" points="0 45.18 0 66 14.09 66 14.09 64.63 1.53 64.63 1.53 45.18 0 45.18"/><path class="cls-1" d="M26.73,47.35l4.59,10.87H22.14Zm-.61-1.84L17.24,66.33h1.68l2.91-6.89h10l2.91,6.89h1.54L27.34,45.51Z" transform="translate(-1 -0.33)"/><path class="cls-1" d="M40.82,57.15h7.35A4.17,4.17,0,0,0,50,56.69a5.53,5.53,0,0,0,2.3-2.91,7.94,7.94,0,0,0,.3-1.84,9.13,9.13,0,0,0-.3-2,6.37,6.37,0,0,0-.92-1.69,3.62,3.62,0,0,0-1.54-1.07A4.13,4.13,0,0,0,48,46.73H41V57.15Zm-1.38,9.18V45.51h8.73a4.49,4.49,0,0,1,2.45.61,6.32,6.32,0,0,1,2,1.53,9.79,9.79,0,0,1,1.23,2.15,6.24,6.24,0,0,1,.46,2.29A9.27,9.27,0,0,1,54,54.24c-.31.76-.61,1.38-.92,2a4.43,4.43,0,0,1-1.53,1.38,7.84,7.84,0,0,1-2,.76l5.21,8.12h-2l-5-7.81H41v7.81l-1.53-.16Z" transform="translate(-1 -0.33)"/><path class="cls-1" d="M67,47.35,71.6,58.22H62.41Zm-.62-1.84L57.51,66.33H59.2l2.91-6.89h10L75,66.33H76.5L67.62,45.51Z" transform="translate(-1 -0.33)"/><polygon class="cls-2" points="84.07 45.18 84.07 66 98.01 66 98.01 64.63 85.61 64.63 85.61 45.18 84.07 45.18"/><path class="cls-2" d="M110.65,47.35l4.6,10.87h-9.19ZM110,45.51l-8.88,20.82h1.68l2.91-6.89h10l2.91,6.89h1.54l-8.89-20.82Z" transform="translate(-1 -0.33)"/><polygon class="cls-2" points="117.46 45.18 117.46 46.55 125.11 46.55 125.11 66 126.65 66 126.65 46.55 134.3 46.55 134.3 45.18 117.46 45.18"/><polygon class="cls-2" points="152.37 45.18 152.37 54.67 139.2 54.67 139.2 45.18 137.67 45.18 137.67 66 139.2 66 139.2 56.05 152.37 56.05 152.37 66 153.91 66 153.91 45.18 152.37 45.18"/><path class="cls-2" d="M167.62,47.35l4.59,10.87H163ZM167,45.51l-8.89,20.82h1.69l2.91-6.89h9.95l2.91,6.89h1.53l-8.88-20.82Z" transform="translate(-1 -0.33)"/><polygon class="cls-2" points="198.47 45.18 189.74 60.18 181.01 45.18 179.48 45.18 179.48 66 181.01 66 181.01 47.93 189.28 62.02 190.2 62.02 198.47 47.93 198.47 66 200 66 200 45.18 198.47 45.18"/></svg>