<?xml version="1.0" encoding="utf-8"?>
<!-- Generator: Adobe Illustrator 25.0.1, SVG Export Plug-In . SVG Version: 6.00 Build 0)  -->
<svg version="1.1" id="Layer_1" xmlns="http://www.w3.org/2000/svg" xmlns:xlink="http://www.w3.org/1999/xlink" x="0px" y="0px"
	 viewBox="0 0 136.5 49.6" style="enable-background:new 0 0 136.5 49.6;" xml:space="preserve">
<style type="text/css">
	.st0{fill:none;}
	.st1{fill:#21A8D1;}
	.st2{fill:#105776;}
</style>
<rect class="st0" width="136.5" height="49.6"/>
<polygon class="st1" points="67.8,3.2 55.5,15.4 57.9,17.7 64.4,11.2 68,7.6 74.3,13.8 76.3,11.8 "/>
<g>
	<path class="st2" d="M60,19.9l2.1-2.1c0,0,4.2,3.5,8.2,2.5c4.1-1.1,8.1-6.4,8.1-6.4l2.4,2.4L68.6,28.5L60,19.9z"/>
</g>
<polygon class="st1" points="2.9,32.7 2.9,46.3 12.1,46.3 12.1,45.4 3.9,45.4 3.9,32.7 "/>
<path class="st1" d="M19.7,33.9l3,7.1h-6L19.7,33.9z M19.3,32.7l-5.8,13.6h1.1l1.9-4.5H23l1.9,4.5h1l-5.8-13.6H19.3z"/>
<g>
	<path class="st1" d="M28.9,40.3h4.8c0.4,0,0.8-0.1,1.2-0.3s0.7-0.5,0.9-0.8c0.3-0.3,0.5-0.7,0.6-1.1s0.2-0.8,0.2-1.2
		s-0.1-0.9-0.2-1.3s-0.4-0.8-0.6-1.1c-0.3-0.3-0.6-0.6-1-0.7c-0.4-0.2-0.8-0.3-1.2-0.3H29v6.8H28.9z M28,46.3V32.7h5.7
		c0.6,0,1.1,0.1,1.6,0.4c0.5,0.2,0.9,0.6,1.3,1c0.3,0.4,0.6,0.9,0.8,1.4c0.2,0.5,0.3,1,0.3,1.5s-0.1,1-0.2,1.4
		c-0.2,0.5-0.4,0.9-0.6,1.3c-0.3,0.4-0.6,0.7-1,0.9s-0.8,0.4-1.3,0.5l3.4,5.3h-1.3l-3.3-5.1H29v5.1L28,46.3L28,46.3z"/>
</g>
<path class="st1" d="M46,33.9l3,7.1h-6L46,33.9z M45.6,32.7l-5.8,13.6h1.1l1.9-4.5h6.5l1.9,4.5h1l-5.8-13.6H45.6z"/>
<polygon class="st2" points="57.8,32.7 57.8,46.3 66.9,46.3 66.9,45.4 58.8,45.4 58.8,32.7 "/>
<path class="st2" d="M74.5,33.9l3,7.1h-6L74.5,33.9z M74.1,32.7l-5.8,13.6h1.1l1.9-4.5h6.5l1.9,4.5h1l-5.8-13.6H74.1z"/>
<polygon class="st2" points="79.6,32.7 79.6,33.6 84.6,33.6 84.6,46.3 85.6,46.3 85.6,33.6 90.6,33.6 90.6,32.7 "/>
<polygon class="st2" points="102.4,32.7 102.4,38.9 93.8,38.9 93.8,32.7 92.8,32.7 92.8,46.3 93.8,46.3 93.8,39.8 102.4,39.8 
	102.4,46.3 103.4,46.3 103.4,32.7 "/>
<path class="st2" d="M111.7,33.9l3,7.1h-6L111.7,33.9z M111.3,32.7l-5.8,13.6h1.1l1.9-4.5h6.5l1.9,4.5h1l-5.8-13.6H111.3z"/>
<polygon class="st2" points="132.5,32.7 126.8,42.5 121.1,32.7 120.1,32.7 120.1,46.3 121.1,46.3 121.1,34.5 126.5,43.7 127.1,43.7 
	132.5,34.5 132.5,46.3 133.5,46.3 133.5,32.7 "/>
</svg>
