<?xml version="1.0" encoding="utf-8"?>
<!-- Generator: Adobe Illustrator 24.0.1, SVG Export Plug-In . SVG Version: 6.00 Build 0)  -->
<svg version="1.1" id="Layer_1" xmlns="http://www.w3.org/2000/svg" xmlns:xlink="http://www.w3.org/1999/xlink" x="0px" y="0px"
	 viewBox="0 0 202 66.8" style="enable-background:new 0 0 202 66.8;" xml:space="preserve">
<style type="text/css">
	.st0{fill:#21A8D1;}
	.st1{fill:#105776;}
</style>
<g>
	<polygon class="st0" points="100.4,0.3 81.6,19 85.2,22.5 95.2,12.6 100.7,7.1 110.3,16.6 113.4,13.5 	"/>
	<g>
		<path class="st1" d="M88.4,25.9l3.2-3.2c0,0,6.4,5.4,12.6,3.8c6.3-1.7,12.4-9.8,12.4-9.8l3.7,3.7l-18.7,18.7L88.4,25.9z"/>
	</g>
	<polygon class="st0" points="1,45.5 1,66.3 15.1,66.3 15.1,65 2.5,65 2.5,45.5 	"/>
	<path class="st0" d="M26.7,47.3l4.6,10.9h-9.2L26.7,47.3z M26.1,45.5l-8.9,20.8h1.7l2.9-6.9h10l2.9,6.9h1.5l-8.9-20.8H26.1z"/>
	<g>
		<path class="st0" d="M40.8,57.1h7.4c0.6,0,1.2-0.2,1.8-0.5c0.6-0.3,1.1-0.8,1.4-1.2c0.5-0.5,0.8-1.1,0.9-1.7
			c0.2-0.6,0.3-1.2,0.3-1.8s-0.2-1.4-0.3-2c-0.2-0.6-0.6-1.2-0.9-1.7c-0.5-0.5-0.9-0.9-1.5-1.1c-0.6-0.3-1.2-0.5-1.8-0.5h-7v10.4
			H40.8z M39.4,66.3V45.5h8.7c0.9,0,1.7,0.2,2.5,0.6c0.8,0.3,1.4,0.9,2,1.5c0.5,0.6,0.9,1.4,1.2,2.1c0.3,0.8,0.5,1.5,0.5,2.3
			c0,0.8-0.2,1.5-0.3,2.1c-0.3,0.8-0.6,1.4-0.9,2c-0.5,0.6-0.9,1.1-1.5,1.4c-0.6,0.3-1.2,0.6-2,0.8l5.2,8.1h-2l-5.1-7.8H41v7.8
			L39.4,66.3L39.4,66.3z"/>
	</g>
	<path class="st0" d="M67,47.3l4.6,10.9h-9.2L67,47.3z M66.4,45.5l-8.9,20.8h1.7l2.9-6.9h10l2.9,6.9h1.5l-8.9-20.8H66.4z"/>
	<polygon class="st1" points="85.1,45.5 85.1,66.3 99,66.3 99,65 86.6,65 86.6,45.5 	"/>
	<path class="st1" d="M110.7,47.3l4.6,10.9h-9.2L110.7,47.3z M110,45.5l-8.9,20.8h1.7l2.9-6.9h10l2.9,6.9h1.5l-8.9-20.8H110z"/>
	<polygon class="st1" points="118.5,45.5 118.5,46.9 126.1,46.9 126.1,66.3 127.6,66.3 127.6,46.9 135.3,46.9 135.3,45.5 	"/>
	<polygon class="st1" points="153.4,45.5 153.4,55 140.2,55 140.2,45.5 138.7,45.5 138.7,66.3 140.2,66.3 140.2,56.4 153.4,56.4 
		153.4,66.3 154.9,66.3 154.9,45.5 	"/>
	<path class="st1" d="M167.6,47.3l4.6,10.9H163L167.6,47.3z M167,45.5l-8.9,20.8h1.7l2.9-6.9h10l2.9,6.9h1.5l-8.9-20.8H167z"/>
	<polygon class="st1" points="199.5,45.5 190.7,60.5 182,45.5 180.5,45.5 180.5,66.3 182,66.3 182,48.3 190.3,62.4 191.2,62.4 
		199.5,48.3 199.5,66.3 201,66.3 201,45.5 	"/>
</g>
</svg>
